<?xml version="1.0" standalone="no"?>
<!DOCTYPE svg PUBLIC "-//W3C//DTD SVG 20010904//EN"
 "http://www.w3.org/TR/2001/REC-SVG-20010904/DTD/svg10.dtd">
<svg version="1.0" xmlns="http://www.w3.org/2000/svg"
 width="1280.000000pt" height="1072.000000pt" viewBox="0 0 1280.000000 1072.000000"
 preserveAspectRatio="xMidYMid meet">
<metadata>
Created by potrace 1.15, written by Peter Selinger 2001-2017
</metadata>
<g transform="translate(0.000000,1072.000000) scale(0.100000,-0.100000)"
fill="black" stroke="none">
<path d="M9016 10704 c-21 -21 -20 -35 4 -41 30 -8 25 -48 -9 -72 -15 -11 -31
-33 -34 -49 -5 -23 -15 -32 -50 -46 -24 -9 -55 -15 -68 -14 -37 4 -35 -36 4
-107 28 -50 39 -61 63 -63 40 -4 79 28 94 76 16 48 28 61 40 42 15 -24 12 -96
-5 -110 -18 -15 -11 -30 16 -30 28 0 25 -44 -6 -84 -36 -47 -32 -62 8 -37 39
24 50 19 36 -17 -20 -52 -81 -121 -171 -194 -106 -85 -159 -116 -310 -182
-125 -54 -270 -83 -465 -93 l-122 -6 -10 26 c-8 21 -17 26 -53 29 l-43 3 28
14 c19 10 26 20 22 32 -3 9 -1 20 5 24 24 15 -5 25 -70 25 -79 0 -100 14 -37
24 46 8 87 30 87 48 0 10 -54 7 -131 -9 -18 -3 -29 -1 -29 6 0 6 9 11 20 11
27 0 75 25 124 63 l39 31 123 -3 124 -3 0 34 c0 26 -7 39 -29 56 -21 15 -32
35 -40 72 -13 61 -14 110 -3 110 5 0 53 -45 108 -99 80 -79 108 -101 143 -111
32 -8 51 -9 68 -1 31 14 41 41 20 53 -14 7 -17 25 -17 86 -1 42 -7 104 -15
137 -8 33 -10 64 -6 68 19 19 44 0 62 -47 10 -27 29 -65 42 -85 13 -20 31 -48
41 -63 34 -57 133 -26 152 47 10 40 -2 41 -46 1 -22 -20 -45 -36 -51 -36 -24
0 -52 24 -66 57 -20 48 -8 54 90 46 l77 -6 0 27 c0 24 -3 26 -42 26 l-41 0 24
26 24 25 -38 32 c-20 18 -50 57 -65 87 -22 45 -32 56 -55 58 -25 3 -27 1 -21
-22 8 -32 -25 -87 -69 -115 -18 -11 -40 -26 -50 -33 -14 -11 -23 -10 -48 5
-42 24 -55 22 -101 -15 -30 -24 -39 -36 -35 -54 5 -28 -1 -31 -100 -39 -93 -8
-113 -1 -137 50 -18 36 -51 53 -83 40 -16 -6 -15 -9 10 -30 26 -24 27 -25 7
-35 -16 -9 -20 -21 -20 -64 0 -29 -7 -73 -15 -96 -14 -41 -14 -43 10 -72 14
-17 24 -35 22 -41 -6 -20 -26 -18 -46 2 -17 17 -21 34 -21 85 0 46 -4 65 -14
69 -24 9 -49 -18 -50 -54 -1 -33 -2 -34 -39 -31 -35 3 -38 1 -43 -28 -6 -29
-29 -50 -53 -50 -6 0 -23 13 -37 30 -31 34 -82 47 -114 30 -26 -14 -18 -23 35
-38 48 -14 83 -37 72 -48 -4 -5 -17 -3 -27 4 -26 16 -60 15 -60 -1 0 -7 32
-49 71 -92 69 -78 203 -267 219 -311 5 -12 14 -86 20 -165 6 -79 18 -163 26
-186 11 -29 43 -70 97 -124 124 -124 139 -136 180 -153 20 -8 37 -20 37 -25 0
-6 -17 -11 -37 -11 -57 0 -111 -18 -128 -43 -8 -12 -43 -33 -77 -47 -67 -27
-83 -50 -46 -68 23 -10 23 -11 -5 -11 -45 -1 -65 16 -101 87 -19 37 -45 77
-58 89 -36 34 -163 63 -274 63 -80 0 -101 -4 -162 -30 -39 -16 -76 -30 -81
-30 -16 0 -13 18 7 38 11 11 24 56 36 124 16 92 17 114 6 153 -11 40 -11 48 5
65 22 24 39 16 24 -11 -6 -12 -8 -23 -5 -26 9 -9 36 18 36 37 0 9 11 34 25 55
14 20 29 51 32 69 3 17 12 43 19 58 8 15 14 37 14 49 0 21 -2 22 -94 15 -140
-10 -146 -13 -182 -79 -47 -89 -54 -91 -54 -18 0 60 -1 62 -22 56 -13 -4 -38
-22 -55 -41 -31 -31 -33 -38 -33 -104 0 -45 4 -69 10 -65 6 3 10 13 10 20 0
16 57 85 70 85 14 0 20 -30 10 -55 -5 -13 -31 -46 -57 -73 -73 -74 -123 -151
-123 -189 l0 -33 -52 0 c-81 0 -236 -19 -303 -35 -64 -17 -219 -82 -275 -117
-62 -38 -12 -32 84 10 173 76 226 87 436 86 135 0 197 -4 230 -15 25 -8 44
-19 43 -24 -2 -6 -26 -11 -55 -12 -29 -2 -102 -10 -163 -18 -60 -9 -180 -20
-265 -24 -136 -7 -166 -12 -247 -41 -92 -32 -93 -32 -195 -21 -303 31 -536 23
-813 -29 -112 -21 -177 -38 -215 -58 -107 -54 -405 -224 -439 -249 -40 -31
-121 -63 -157 -63 -14 0 -57 9 -95 21 -59 18 -89 20 -216 17 -125 -2 -152 -6
-176 -22 -51 -34 -74 -109 -42 -136 25 -21 17 -36 -32 -63 -51 -27 -126 -108
-143 -151 -5 -14 -8 -67 -7 -118 1 -72 -2 -100 -15 -124 -17 -30 -21 -32 -90
-36 -60 -3 -88 -11 -158 -45 -83 -40 -136 -56 -307 -88 -46 -9 -113 -25 -150
-36 -62 -19 -75 -29 -148 -104 -226 -234 -319 -350 -331 -413 -5 -27 -1 -45
16 -78 30 -54 23 -64 -73 -98 -62 -21 -94 -26 -227 -29 -121 -4 -167 -9 -210
-25 -64 -23 -130 -60 -130 -73 0 -15 14 -11 83 26 l66 35 179 0 c176 0 180 1
243 29 82 36 109 45 109 33 0 -5 -25 -22 -55 -37 -83 -43 -135 -100 -99 -112
5 -2 34 17 64 42 30 25 64 48 75 51 11 4 32 15 48 26 36 26 37 79 2 130 -57
85 -20 159 189 371 183 187 191 191 506 241 53 8 155 34 227 57 144 45 169 45
158 1 -10 -39 -22 -50 -91 -82 -97 -44 -184 -133 -184 -188 0 -29 -58 -75
-127 -100 -86 -32 -147 -67 -183 -108 -35 -41 -32 -51 30 -107 54 -49 100 -51
78 -2 -18 40 5 65 58 65 25 0 90 9 146 21 115 24 133 18 99 -29 -11 -17 -21
-33 -21 -36 0 -3 -46 -103 -101 -221 -89 -189 -105 -216 -128 -220 -63 -13
-174 -51 -276 -95 -249 -108 -364 -170 -315 -170 5 0 68 27 139 60 128 59 161
69 161 50 0 -5 -4 -10 -10 -10 -5 0 -10 -7 -10 -15 0 -21 -94 -92 -171 -130
-36 -17 -122 -69 -190 -115 -215 -145 -311 -179 -624 -225 -93 -14 -173 -29
-178 -34 -20 -20 307 24 442 60 63 17 124 28 136 25 14 -4 57 14 131 56 109
61 180 92 350 153 50 17 129 55 176 83 139 84 238 123 238 94 0 -12 -58 -101
-96 -148 -19 -22 -40 -56 -48 -75 -20 -47 -40 -63 -121 -92 -112 -40 -259 -99
-269 -108 -18 -16 2 -21 40 -10 75 21 12 -16 -156 -92 -180 -80 -212 -93 -343
-132 -89 -26 -112 -45 -56 -45 55 0 233 67 483 180 133 61 247 110 253 110 7
0 27 9 45 19 40 23 98 37 98 23 0 -10 -70 -42 -90 -42 -18 0 -130 -53 -130
-62 0 -11 -3 -11 63 12 61 22 87 25 87 12 0 -9 -29 -23 -145 -67 -71 -27 -139
-64 -132 -71 2 -2 48 9 101 26 54 16 102 27 107 24 5 -3 -33 -47 -84 -97 -65
-65 -110 -101 -152 -121 -32 -15 -78 -41 -102 -58 -37 -27 -48 -30 -90 -25
-26 3 -90 19 -141 36 -51 16 -114 32 -140 35 l-47 6 55 -27 c30 -15 102 -43
159 -63 58 -20 106 -41 109 -48 6 -20 -18 -14 -192 43 -91 30 -172 55 -180 55
-23 0 -31 22 -12 32 26 15 19 25 -31 44 -27 9 -102 39 -167 66 -65 27 -142 52
-170 54 l-51 6 25 -21 c14 -11 45 -25 70 -31 68 -17 280 -102 280 -111 0 -14
-24 -10 -102 17 -40 14 -89 30 -108 34 -65 17 -484 167 -585 210 -111 47 -368
134 -430 146 -22 4 -78 24 -125 44 -47 20 -102 43 -122 49 -21 7 -38 16 -38
21 0 4 23 11 50 15 28 4 50 11 50 16 0 16 -58 39 -98 39 -42 0 -92 -30 -92
-55 0 -17 141 -86 225 -110 33 -10 92 -28 130 -41 39 -13 99 -31 135 -39 36
-9 74 -22 85 -29 11 -7 38 -19 60 -26 22 -7 113 -44 201 -81 89 -38 192 -78
228 -89 37 -12 101 -36 144 -54 82 -35 139 -54 482 -162 118 -37 219 -70 223
-74 5 -4 2 -21 -7 -38 -23 -44 -21 -109 3 -122 33 -17 59 -11 91 20 88 86 159
67 104 -29 -97 -168 -99 -176 -59 -216 29 -30 94 -34 119 -9 25 24 19 33 -24
40 -87 14 -78 45 52 169 57 55 86 89 82 99 -4 10 8 23 33 39 43 28 85 71 132
137 51 71 17 60 -68 -22 -80 -80 -159 -138 -185 -138 -24 0 -19 29 7 39 13 5
36 27 51 50 39 56 143 139 191 153 22 6 49 19 60 28 28 24 53 35 109 49 27 7
62 22 76 34 15 12 36 27 46 33 18 11 18 13 1 66 -9 30 -17 60 -17 66 0 17 52
15 76 -2 19 -14 18 -15 -4 -61 -26 -53 -24 -60 12 -51 15 4 28 17 34 36 13 35
40 40 67 10 17 -19 17 -21 -34 -70 -28 -27 -51 -51 -51 -54 0 -2 6 -18 14 -36
7 -18 11 -41 8 -52 -5 -21 -50 -48 -80 -48 -34 0 -97 -83 -172 -224 -40 -76
-80 -140 -89 -143 -37 -11 -46 -21 -43 -49 2 -22 -8 -42 -38 -78 -55 -66 -52
-78 11 -52 12 5 18 0 23 -18 5 -22 12 -26 41 -26 26 0 35 5 41 23 8 25 24 38
37 30 4 -2 1 -16 -8 -29 -19 -30 -20 -30 118 -5 59 11 127 30 152 42 44 22 46
22 105 6 63 -18 337 -114 402 -141 21 -9 38 -22 38 -29 0 -7 -37 -56 -83 -108
-93 -106 -181 -171 -372 -276 -439 -240 -444 -246 -520 -485 -20 -64 -50 -138
-67 -163 -18 -26 -33 -64 -35 -89 -5 -38 -2 -46 23 -70 62 -58 231 -123 285
-109 15 4 17 8 8 19 -6 8 -17 14 -23 14 -6 -1 -62 25 -123 57 -81 41 -113 63
-113 76 0 20 23 68 51 107 10 14 27 61 38 104 11 44 28 91 38 105 21 29 229
139 240 127 11 -11 -68 -79 -150 -129 -81 -49 -95 -69 -46 -65 33 3 33 3 30
-38 -2 -35 3 -47 27 -72 16 -16 37 -54 46 -83 10 -30 34 -80 53 -111 32 -52
35 -63 29 -104 -3 -26 -15 -61 -26 -79 -11 -18 -20 -42 -20 -54 0 -62 224 -86
336 -36 74 33 129 32 234 -5 100 -35 109 -50 57 -102 -36 -36 -129 -71 -220
-82 -52 -6 -113 -34 -140 -63 -9 -11 -23 -40 -30 -64 -11 -38 -19 -47 -63 -69
-28 -14 -82 -46 -120 -71 -87 -59 -275 -146 -340 -158 -70 -14 -84 -21 -84
-42 0 -23 8 -24 60 -3 23 9 43 14 46 11 11 -11 -121 -70 -186 -83 -68 -15
-310 -127 -310 -144 0 -27 125 -3 180 35 21 14 66 33 101 41 35 8 79 27 98 42
40 30 202 114 208 108 7 -7 -115 -90 -241 -165 -120 -71 -281 -140 -391 -167
-241 -60 -575 -196 -729 -299 -55 -36 -153 -77 -281 -118 -119 -38 -125 -40
-125 -27 0 6 30 25 67 42 178 80 214 99 293 153 136 93 496 259 675 310 102
29 115 55 28 55 -36 0 -85 -10 -128 -25 -38 -14 -77 -25 -86 -25 -8 0 -51 -23
-95 -52 -93 -61 -245 -141 -681 -358 -344 -171 -363 -177 -438 -146 -19 8 -35
18 -35 21 0 4 10 28 21 55 14 33 19 59 15 76 -17 65 -103 109 -236 121 -62 5
-69 3 -157 -41 -115 -58 -138 -87 -137 -169 1 -67 18 -91 94 -129 l45 -23 10
-106 c6 -61 16 -113 24 -123 25 -30 71 -13 71 26 0 11 13 27 30 36 34 19 37
33 14 53 -36 29 -87 180 -65 187 6 2 29 18 51 35 21 18 49 39 62 49 22 15 22
17 4 24 -10 4 -37 1 -60 -6 -23 -7 -57 -13 -76 -13 -45 0 -114 27 -118 46 -5
22 45 63 106 88 53 22 55 22 126 5 153 -36 191 -87 122 -164 l-35 -39 28 -27
c18 -17 52 -33 97 -44 38 -9 68 -21 67 -27 -1 -5 -27 -17 -58 -27 -86 -25
-105 -41 -105 -88 0 -36 -4 -42 -42 -66 -24 -15 -73 -56 -110 -91 -37 -36 -73
-63 -80 -61 -7 3 -14 21 -16 41 -3 29 -7 37 -23 37 -31 0 -77 -52 -85 -95 -8
-46 -71 -172 -106 -214 -14 -16 -38 -63 -53 -103 -51 -133 -104 -213 -238
-356 -43 -46 -82 -95 -88 -109 -13 -34 -10 -141 4 -183 7 -19 20 -36 29 -38
14 -3 16 5 15 45 l-2 48 45 15 c25 8 55 21 67 28 12 6 32 12 44 12 13 0 38 17
63 44 25 27 55 48 78 54 38 10 93 56 285 234 52 48 111 100 131 114 41 30 157
198 157 228 0 13 15 27 47 43 50 25 46 16 61 132 1 8 34 43 73 77 66 57 77 63
130 69 93 10 116 21 205 95 133 111 167 124 559 219 113 28 257 69 320 91 63
23 147 51 185 64 39 12 83 34 100 50 41 38 492 270 585 300 114 37 171 47 345
57 212 12 276 33 416 136 36 26 89 64 117 83 70 47 93 110 108 294 l7 89 99
98 c55 55 105 99 113 99 7 0 18 -7 25 -15 10 -11 36 -15 111 -15 96 0 100 -1
111 -25 15 -33 66 -55 125 -55 56 0 71 -12 96 -72 10 -22 23 -38 32 -38 15 0
16 10 13 72 l-3 72 72 17 c122 27 138 63 24 53 -69 -7 -111 5 -139 39 -10 12
-5 15 34 21 26 3 68 6 93 6 48 0 81 13 68 27 -5 4 -53 9 -108 11 -74 3 -102 8
-106 18 -7 19 21 87 63 151 31 45 43 55 87 68 62 18 94 19 100 3 3 -10 11 -10
33 -3 21 8 29 17 29 35 0 25 0 25 -82 22 -52 -2 -83 0 -83 7 0 15 20 25 73 36
26 6 48 15 48 20 -1 6 -20 17 -43 25 -37 12 -40 15 -18 18 70 8 92 24 50 35
-25 7 -26 32 -1 63 61 77 129 363 90 376 -9 3 -48 131 -49 159 0 4 34 9 75 11
107 5 112 16 40 86 -78 75 -202 152 -257 159 l-43 6 19 -21 c10 -12 48 -39 85
-62 94 -59 151 -100 151 -111 0 -17 -156 -7 -550 37 -227 25 -251 36 -153 74
32 12 68 26 81 31 12 5 22 13 22 19 0 18 -154 84 -372 159 -113 39 -241 84
-284 102 -178 71 -634 229 -659 229 -24 -1 -45 -16 -67 -51 -10 -17 -32 -30
-57 -37 -46 -11 -53 -1 -17 23 13 9 27 28 31 42 3 15 15 38 25 53 10 14 23 50
28 80 19 103 76 227 110 238 20 6 14 -20 -19 -94 -42 -91 -80 -204 -73 -215 3
-5 17 -9 31 -9 54 0 671 -214 1004 -349 270 -109 328 -115 316 -30 -8 60 3 66
66 35 30 -14 86 -49 124 -77 74 -54 108 -68 126 -50 8 8 1 19 -26 43 -28 26
-43 54 -67 123 -50 145 -58 196 -66 416 -4 115 -9 209 -11 209 -2 0 -27 -17
-56 -39 -61 -45 -120 -138 -138 -216 -12 -55 -5 -165 11 -165 15 0 20 16 35
122 20 136 81 265 111 235 3 -3 9 -112 14 -241 7 -228 8 -238 34 -287 14 -28
26 -53 26 -55 0 -11 -37 -1 -98 27 -154 69 -202 57 -152 -41 11 -22 20 -42 20
-45 0 -9 -54 -4 -90 9 -42 16 -42 10 4 181 19 72 40 159 46 195 6 36 25 106
40 155 16 50 34 121 40 159 6 37 33 120 59 185 78 186 80 216 37 440 -13 67
-13 77 2 100 21 34 64 81 74 81 4 0 8 -62 8 -139 l0 -139 31 -12 c17 -7 35
-24 40 -37 4 -12 15 -23 23 -23 12 0 15 19 15 105 0 122 12 162 30 99 6 -21
27 -139 46 -261 29 -190 60 -321 80 -341 8 -9 6 10 -30 282 -44 322 -52 416
-36 416 16 0 53 -88 86 -206 41 -144 68 -208 89 -212 16 -3 17 1 11 30 -4 18
-21 67 -37 108 -30 75 -58 185 -58 228 0 47 34 17 80 -70 58 -110 146 -200
188 -192 20 4 33 0 46 -15 22 -24 47 -26 110 -9 56 15 60 12 137 -104 67 -99
79 -110 79 -73 0 14 7 28 16 32 22 8 59 -31 105 -108 37 -64 62 -88 73 -70 7
10 -58 112 -103 164 -26 29 -40 37 -66 37 -38 0 -50 14 -104 116 -59 112 -208
254 -267 254 -16 0 -32 12 -48 37 -25 36 -107 82 -148 83 -10 0 -27 14 -40 30
-18 24 -29 30 -60 30 -32 0 -40 4 -48 26 -6 14 -19 28 -30 31 -14 4 -20 14
-20 35 0 29 -2 30 -32 24 -90 -18 -108 -19 -108 -5 0 8 36 50 80 94 44 44 80
83 80 87 0 17 -26 6 -78 -33 -64 -49 -142 -164 -234 -346 l-62 -122 14 -78
c21 -127 23 -154 11 -166 -6 -6 -11 -21 -11 -34 0 -34 -25 -28 -43 10 -21 44
-37 108 -31 119 3 5 9 41 14 81 5 40 15 104 23 142 9 39 22 108 31 155 17 90
71 190 102 190 10 0 14 -6 10 -15 -11 -29 27 1 119 95 50 51 101 98 115 105
56 29 411 110 447 103 15 -3 12 -10 -18 -40 -28 -28 -46 -38 -85 -43 -81 -10
-145 -24 -216 -47 -120 -37 -109 -65 12 -33 30 8 102 22 159 30 57 9 113 21
125 27 44 23 214 174 221 198 3 9 -6 42 -20 74 -39 87 -36 101 46 199 27 32
49 63 49 68 0 14 -15 11 -41 -10 -56 -43 -123 -63 -118 -34 3 19 -4 20 -51 8
-27 -7 -50 -10 -50 -5 0 8 187 105 288 149 57 25 70 47 22 37 -17 -3 -78 -26
-136 -51 -58 -25 -110 -45 -116 -45 -26 0 14 27 98 66 112 52 184 74 238 74
l40 0 -57 -58 c-31 -32 -57 -61 -57 -65 0 -18 27 -3 88 48 55 46 84 61 162 86
131 42 273 80 279 74 8 -9 -12 -22 -52 -35 -21 -6 -50 -22 -65 -35 -15 -12
-53 -39 -84 -59 -97 -62 -201 -234 -235 -390 -14 -64 -14 -79 -2 -117 15 -48
33 -58 64 -35 20 14 19 15 -7 25 -26 10 -27 13 -22 63 14 133 75 297 133 358
22 23 52 42 77 49 22 6 49 20 60 32 29 33 89 64 216 113 147 58 165 58 102 4
-133 -114 -236 -250 -273 -360 -24 -71 -28 -173 -9 -243 16 -58 10 -67 -78
-128 -102 -71 -120 -87 -103 -98 16 -10 106 -3 156 12 18 6 46 28 64 50 17 21
37 39 44 39 28 0 25 20 -5 35 -26 13 -29 19 -19 31 8 10 10 36 5 84 -10 109 7
166 65 222 l48 47 -37 3 -36 3 53 43 c50 39 52 42 27 42 -17 0 -25 4 -20 11
13 21 114 79 151 87 24 5 39 14 41 26 3 16 -2 17 -52 11 -31 -4 -56 -4 -56 -1
0 14 88 46 143 52 31 4 57 10 57 14 0 14 -29 19 -82 13 -53 -5 -53 -5 -33 15
11 11 92 47 180 81 266 102 307 120 394 169 98 55 201 147 201 180 0 36 -32
26 -73 -23 -80 -95 -288 -205 -471 -249 -60 -15 -144 -41 -188 -57 -44 -17
-81 -29 -84 -26 -6 6 81 62 126 81 19 8 73 20 120 26 47 7 96 17 110 22 l25 9
-25 19 c-20 15 -22 20 -11 34 12 14 7 16 -45 16 -33 0 -81 -7 -108 -15 -63
-19 -214 -19 -329 -1 l-89 15 -86 -38 c-48 -21 -98 -42 -112 -46 -14 -4 -112
-54 -217 -112 -320 -173 -292 -164 -538 -173 -228 -9 -264 -15 -376 -59 -51
-20 -99 -30 -155 -34 l-81 -5 -36 74 c-45 91 -48 141 -12 199 13 22 25 49 25
61 0 20 28 54 44 54 4 0 4 -19 1 -42 l-6 -43 40 -12 c22 -7 52 -13 66 -13 23
0 25 -4 25 -40 0 -23 9 -59 20 -80 19 -37 19 -43 6 -69 -14 -27 -12 -41 5 -41
5 0 16 14 25 32 13 25 15 48 10 107 -3 42 -2 81 2 87 4 7 34 28 68 47 77 46
118 87 151 156 39 78 36 108 -16 167 -24 27 -56 77 -73 111 -27 59 -55 82 -78
68 -5 -3 -10 -15 -10 -25 0 -26 -23 -36 -94 -43 -41 -4 -71 -14 -100 -34 -34
-23 -184 -103 -193 -103 -2 0 -3 13 -3 29 0 16 -6 34 -14 40 -18 15 -26 -13
-26 -89 0 -57 -32 -143 -63 -168 -9 -7 -32 -12 -54 -10 -38 3 -38 3 -35 43 4
59 -7 123 -24 140 -9 8 -33 15 -54 15 -32 0 -38 -3 -33 -16 5 -13 2 -15 -16
-9 -18 5 -31 0 -55 -22 -17 -16 -48 -42 -69 -57 -27 -20 -49 -51 -77 -109 -57
-118 -108 -249 -135 -347 -13 -47 -35 -113 -49 -148 -34 -80 -208 -419 -256
-497 -92 -149 -170 -359 -170 -460 0 -56 0 -56 28 -53 26 3 27 5 32 77 l5 74
75 33 c41 18 83 34 93 34 28 0 19 -19 -18 -37 -27 -13 -33 -21 -29 -37 3 -14
-11 -53 -38 -106 -42 -82 -44 -85 -83 -90 -35 -4 -40 -9 -46 -37 -3 -18 -21
-49 -39 -69 -27 -31 -31 -42 -25 -70 7 -42 -9 -51 -60 -34 -50 17 -55 38 -17
70 36 30 39 42 16 60 -34 29 -35 46 -4 89 40 55 90 159 90 187 0 12 13 75 30
138 29 114 92 256 150 341 35 51 82 145 119 237 16 40 43 99 61 130 38 70 122
323 147 441 17 82 17 88 0 116 -11 19 -17 50 -17 91 0 54 2 61 18 56 9 -3 33
-8 53 -11 35 -7 37 -5 49 29 6 20 9 49 5 64 -6 29 15 56 63 81 30 16 28 30 -8
42 -35 13 -38 24 -10 39 22 12 26 40 10 70 -8 15 -5 20 22 29 47 17 213 14
295 -6 64 -15 85 -15 202 -3 140 14 172 10 254 -32 22 -11 42 -17 45 -14 11
12 -44 57 -90 74 -60 21 -59 34 6 83 73 55 315 177 377 190 30 6 82 19 117 30
169 50 318 60 812 51 181 -4 187 -3 260 23 138 50 259 44 408 -19 67 -29 116
-44 304 -96 28 -8 63 -37 135 -112 54 -56 118 -121 142 -144 l45 -43 12 -113
c14 -124 18 -387 6 -404 -10 -15 -196 -154 -259 -193 -54 -34 -70 -58 -31 -45
13 4 45 24 73 44 61 46 180 110 204 110 10 0 23 -11 29 -25 7 -14 19 -28 27
-31 13 -5 11 -11 -10 -30 -23 -21 -25 -30 -25 -107 0 -111 -10 -135 -74 -177
-146 -96 -196 -132 -196 -140 0 -18 18 -10 82 33 85 58 152 97 168 97 9 0 11
-9 6 -32 -4 -18 -14 -71 -22 -118 -11 -70 -27 -111 -95 -246 -91 -182 -125
-224 -254 -316 -104 -74 -185 -147 -164 -148 8 0 49 25 89 55 76 57 96 66 86
40 -3 -9 0 -15 8 -15 7 0 19 7 26 15 7 8 17 15 23 15 6 0 0 -11 -13 -25 -13
-14 -28 -25 -33 -25 -13 0 -172 -107 -188 -127 -7 -8 -15 -33 -18 -56 -5 -36
-10 -43 -37 -52 -17 -5 -47 -23 -67 -38 -77 -58 -148 -69 -285 -41 l-33 7 43
19 c39 17 41 20 24 30 -14 8 -33 7 -68 -1 -61 -14 -98 -14 -98 -1 0 20 40 29
177 39 137 10 202 25 218 52 6 9 -1 11 -31 6 -105 -17 -211 -19 -271 -4 l-63
14 -29 -27 c-16 -15 -42 -31 -59 -35 -49 -10 -63 -33 -49 -82 9 -34 7 -65 -10
-170 -24 -142 -36 -183 -55 -183 -7 1 -33 42 -58 93 -50 102 -89 142 -115 116
-13 -13 -11 -20 19 -62 78 -109 114 -196 136 -326 32 -189 41 -203 202 -332
69 -56 92 -81 113 -124 14 -30 25 -58 25 -63 0 -5 12 -22 26 -37 17 -18 24
-36 21 -51 -4 -22 -2 -22 114 -26 103 -3 120 -6 141 -24 13 -12 31 -24 41 -27
25 -9 21 -27 -5 -27 -13 1 -50 7 -83 15 -33 8 -109 15 -168 15 -93 0 -108 2
-114 18 -3 9 -17 27 -31 39 -25 21 -25 23 -9 41 23 25 22 29 -13 47 -51 27
-431 47 -445 24 -4 -6 -5 -13 -2 -15 3 -3 91 -12 196 -19 195 -15 257 -28 194
-41 -18 -3 -33 -8 -33 -11 0 -2 12 -15 28 -28 l27 -24 -33 -27 c-26 -20 -30
-29 -20 -35 7 -5 87 -9 178 -9 117 0 179 -5 214 -15 57 -17 119 -19 147 -5 32
18 25 72 -15 114 l-33 36 -107 0 -107 0 -15 38 c-55 137 -84 181 -162 243 -42
34 -93 78 -113 97 -41 38 -75 103 -66 126 14 35 99 63 318 105 239 46 471 189
544 334 14 28 25 59 25 69 0 31 41 107 72 133 24 20 40 25 88 25 112 0 202 52
225 130 10 35 91 110 118 110 41 1 101 37 173 104 40 36 76 66 82 66 24 0 39
-109 21 -151 -10 -27 -10 -39 6 -84 18 -53 18 -54 -5 -89 -12 -20 -48 -59 -81
-88 -32 -28 -59 -57 -59 -63 0 -20 81 -89 156 -133 143 -83 275 -107 560 -100
129 4 193 9 230 21 28 10 111 57 184 105 123 83 135 94 174 158 56 94 75 100
158 49 89 -54 226 -157 271 -203 29 -30 39 -50 46 -91 5 -29 17 -65 27 -79 29
-39 165 -105 217 -105 55 0 135 27 171 58 21 18 41 25 72 25 60 0 81 10 228
108 192 128 289 174 431 207 278 64 359 86 490 134 80 29 163 67 198 91 72 48
136 69 235 77 64 5 79 3 121 -18 41 -21 49 -30 59 -67 13 -46 34 -61 58 -42
11 10 13 24 8 56 -6 41 -5 43 21 50 15 4 44 1 65 -6 43 -14 64 -7 55 20 -3 11
2 31 11 45 9 14 14 28 11 31 -3 3 -34 -5 -69 -19 -35 -14 -85 -28 -113 -32
l-50 -6 0 37 c0 33 5 40 40 61 91 52 116 60 149 47 13 -5 14 -9 5 -20 -9 -11
-6 -14 18 -14 37 0 93 -18 113 -37 13 -12 12 -14 -8 -19 -12 -4 -22 -10 -22
-15 0 -13 61 -100 74 -104 6 -2 29 -9 51 -14 22 -6 64 -29 94 -51 61 -46 76
-46 37 1 -36 42 -70 69 -120 94 -38 19 -66 49 -55 59 11 12 83 -20 122 -54 47
-41 157 -100 187 -100 43 0 28 22 -34 50 -36 16 -66 34 -66 40 0 13 47 13 55
0 3 -6 25 -15 48 -21 40 -10 97 -44 87 -51 -63 -47 -82 -58 -106 -63 -59 -13
-60 -15 -29 -40 31 -25 29 -37 -11 -49 -14 -4 -31 4 -58 29 -36 33 -64 43 -79
29 -3 -4 13 -31 35 -61 l41 -54 63 6 c54 6 63 5 72 -11 9 -19 8 -24 -10 -72
l-8 -24 -31 26 c-30 25 -49 27 -49 3 0 -6 14 -41 32 -77 17 -36 34 -72 38 -80
4 -8 22 -16 41 -18 19 -2 40 -9 48 -15 10 -9 5 -15 -29 -29 -36 -15 -40 -21
-30 -33 7 -8 18 -15 25 -15 7 0 23 -8 36 -19 22 -18 22 -19 6 -45 -23 -34 -36
-33 -43 4 -9 40 -30 39 -92 -7 -61 -46 -80 -72 -60 -85 19 -13 142 -2 182 17
34 16 56 14 56 -6 0 -5 -8 -9 -18 -9 -10 0 -31 -13 -46 -29 -25 -26 -31 -28
-52 -19 -18 9 -28 8 -36 0 -9 -9 -5 -17 16 -33 21 -17 24 -24 15 -35 -6 -8
-22 -14 -34 -14 -12 0 -34 -9 -49 -21 -48 -38 -22 -89 29 -55 37 24 205 194
205 207 0 6 14 27 31 47 43 49 89 149 89 194 0 21 10 58 22 83 21 42 21 46 6
62 -15 15 -15 19 -2 45 14 27 14 32 -1 54 -8 13 -20 24 -25 24 -14 0 -46 68
-55 115 -14 80 -67 139 -160 180 -27 13 -107 48 -176 79 -75 33 -158 62 -204
71 -42 8 -91 23 -109 35 -19 11 -45 20 -60 20 -17 0 -37 11 -55 30 -39 43 -75
50 -269 50 l-172 0 -83 -44 c-51 -27 -117 -52 -175 -66 -88 -20 -331 -119
-431 -176 -73 -41 -245 -109 -386 -152 -71 -22 -156 -49 -189 -59 -60 -19 -74
-41 -21 -35 88 10 334 94 490 168 161 75 332 138 611 224 40 12 97 37 128 56
l57 34 160 0 c141 0 165 -2 199 -20 22 -11 40 -24 40 -28 0 -15 -45 -50 -72
-57 -34 -9 -35 1 -6 32 21 22 21 23 2 23 -29 0 -59 -25 -74 -60 -10 -24 -19
-30 -42 -30 -50 0 -46 44 6 63 6 2 8 7 5 11 -11 11 -53 -3 -85 -29 -26 -21
-28 -26 -16 -45 18 -30 10 -34 -42 -21 -63 16 -204 14 -291 -4 -90 -19 -182
-56 -328 -134 -154 -81 -382 -166 -567 -212 -85 -21 -180 -47 -210 -57 -100
-36 -115 -36 -139 -6 -37 48 -20 81 52 98 65 15 9 40 -61 27 -54 -11 -74 -29
-90 -83 -8 -25 -34 -66 -63 -97 l-49 -55 0 57 c0 30 -5 59 -11 62 -7 5 -5 15
5 31 20 29 20 40 1 48 -30 11 -66 -13 -86 -59 l-20 -46 26 -66 c20 -50 25 -76
21 -105 -5 -29 -3 -38 8 -38 14 0 49 38 72 75 22 38 64 -30 64 -104 0 -35 -3
-40 -31 -50 -46 -16 -85 -13 -164 13 l-70 22 3 62 c5 83 -10 123 -61 165 -23
19 -49 47 -57 63 -26 50 -43 64 -77 64 -35 0 -53 17 -29 26 29 11 16 24 -23
24 -35 0 -39 2 -33 22 5 20 2 21 -36 15 -47 -6 -64 6 -32 23 24 13 25 27 4 52
-21 22 -7 42 40 58 39 12 57 7 141 -44 63 -38 75 -42 75 -26 0 19 -65 82 -137
132 -41 28 -80 63 -88 78 -16 31 -90 125 -152 192 -24 26 -43 55 -43 64 0 10
-7 25 -16 35 -14 15 -14 23 -3 53 10 29 10 39 1 48 -18 18 -44 -1 -54 -39 -5
-21 -30 -48 -76 -86 -63 -51 -182 -175 -182 -191 0 -21 40 5 124 84 62 57 105
90 119 90 13 -1 32 -15 47 -34 71 -96 163 -203 190 -221 16 -11 30 -24 30 -30
0 -20 -58 -111 -94 -147 -20 -20 -57 -47 -84 -58 -56 -25 -110 -75 -162 -151
-47 -68 -106 -107 -217 -144 -85 -27 -105 -41 -82 -56 30 -18 -33 -24 -256
-24 -199 0 -237 3 -285 19 -79 27 -147 62 -207 107 -64 48 -75 79 -42 115 26
28 43 30 94 8 41 -17 49 -14 50 19 0 13 9 26 23 32 12 5 22 13 22 18 0 4 -22
32 -50 61 -27 29 -50 58 -50 64 0 17 25 15 41 -4 7 -8 35 -27 61 -40 27 -14
51 -30 53 -37 2 -7 6 -24 9 -38 7 -31 55 -54 133 -64 66 -9 484 12 496 24 19
19 -44 24 -212 17 -163 -6 -311 0 -311 14 0 3 35 12 78 18 158 25 288 78 268
111 -13 20 -109 40 -289 61 -179 21 -226 33 -235 58 -5 16 13 15 134 -3 136
-20 314 -18 314 5 0 4 -39 10 -87 14 -110 8 -203 26 -203 38 0 7 33 8 89 3 93
-7 160 0 144 16 -5 5 -49 16 -97 25 -100 17 -202 52 -189 64 4 5 45 14 91 19
159 20 128 39 -65 40 -167 1 -194 10 -139 47 22 14 37 14 118 4 94 -11 148 -5
156 18 3 9 -17 12 -70 12 -112 0 -113 4 -25 112 94 114 94 114 137 142 23 14
39 35 48 60 7 22 11 41 8 43 -2 2 -26 -7 -53 -20 -56 -29 -104 -78 -123 -125
-12 -31 -85 -92 -110 -92 -6 0 -20 -16 -32 -35 -11 -20 -97 -104 -191 -188
-230 -206 -256 -227 -278 -227 -10 0 -52 -18 -94 -39 -42 -22 -92 -45 -111
-51 -43 -14 -144 -29 -144 -21 0 3 39 43 87 89 95 90 94 97 -2 22 -33 -26
-102 -75 -154 -110 -51 -34 -96 -71 -98 -81 -8 -31 -58 -36 -135 -13 -41 12
-6 80 58 113 24 13 73 55 108 92 l65 69 55 0 c54 0 136 24 136 40 0 10 -52 20
-101 20 -21 0 -40 4 -43 8 -3 5 16 43 42 84 68 107 89 157 73 168 -10 5 1 14
35 30 l49 21 -23 20 -24 19 29 10 c90 33 96 54 13 44 l-59 -7 19 41 c11 23 20
48 20 57 0 27 20 55 39 55 42 0 148 41 172 66 l24 27 -35 -7 c-87 -17 -145
-18 -165 -3 -19 15 -19 16 -2 51 12 26 23 36 40 36 25 0 181 72 191 88 15 25
-18 18 -113 -23 -121 -54 -146 -57 -137 -17 3 15 12 68 20 117 23 138 24 141
92 150 61 7 137 34 180 61 46 30 9 35 -76 9 -46 -14 -105 -25 -132 -25 l-48 0
0 240 c0 216 2 241 17 247 32 12 243 -31 275 -56 20 -17 21 -19 5 -42 -26 -37
-21 -76 19 -135 31 -48 39 -54 71 -54 30 0 34 -3 28 -17 -4 -10 -8 -76 -10
-148 -2 -71 -8 -154 -14 -184 -6 -29 -11 -104 -11 -165 0 -68 -6 -135 -15
-170 -9 -33 -13 -61 -11 -63 8 -9 56 96 71 155 8 34 14 98 13 157 -1 55 3 116
9 135 6 19 15 82 18 140 l7 105 58 38 c55 36 62 38 132 36 74 -2 225 15 237
26 24 25 -151 61 -252 53 -54 -4 -56 -4 -41 13 8 9 41 31 73 47 65 35 122 83
104 89 -6 2 -35 -9 -65 -25 -68 -38 -100 -45 -135 -31 -15 7 -50 17 -78 24
-39 9 -51 16 -55 35 -3 12 -16 30 -28 38 -21 14 -23 14 -29 -6 -5 -22 -46 -31
-57 -13 -8 12 -106 37 -216 56 -125 21 -127 22 -135 52 -11 45 7 48 90 18 49
-18 80 -24 86 -18 14 14 -12 33 -74 56 -87 32 -150 47 -195 47 -55 0 -77 16
-149 102 -42 50 -79 82 -133 114 -68 40 -81 44 -140 44 -69 0 -170 24 -170 40
0 24 49 35 165 35 108 0 124 -2 157 -23 41 -25 185 -186 206 -230 13 -27 56
-55 67 -44 17 18 2 80 -35 138 -22 35 -40 70 -40 79 0 24 47 37 138 40 83 3
124 17 88 31 -28 11 -206 -3 -260 -21 -68 -21 -70 -10 -4 20 81 37 157 48 276
40 l104 -7 14 -34 c8 -19 41 -64 75 -101 75 -82 92 -114 84 -156 -4 -20 3 -67
19 -126 26 -97 38 -121 50 -102 4 6 27 11 51 11 41 0 46 -3 59 -34 9 -23 23
-36 42 -40 25 -7 32 -3 54 26 41 55 132 138 180 163 49 25 112 85 75 71 -11
-4 -45 -10 -75 -13 -49 -5 -59 -2 -85 19 -17 14 -48 34 -70 46 l-40 20 28 11
c46 18 87 13 136 -16 36 -22 64 -29 126 -33 77 -6 86 -9 245 -95 254 -137 344
-175 413 -175 32 0 68 5 79 11 12 6 51 15 87 19 61 8 69 12 108 53 l42 45 -1
134 c-1 93 4 160 16 222 13 66 16 109 11 171 l-7 82 46 89 c53 100 59 147 17
152 -23 4 -23 2 -17 -41 7 -43 5 -47 -34 -85 -22 -22 -40 -48 -40 -57 0 -9 -9
-28 -20 -42 -11 -14 -20 -31 -20 -38 0 -17 -23 -25 -49 -18 -25 6 -71 -4 -71
-16 0 -5 32 -21 70 -36 81 -31 102 -55 68 -79 -13 -9 -43 -16 -70 -16 -68 0
-97 -14 -104 -50 -5 -21 -12 -30 -25 -30 -16 0 -18 5 -13 25 5 22 2 25 -41 36
-28 7 -52 21 -61 34 -11 16 -29 24 -64 29 -47 6 -110 45 -110 67 0 13 57 11
82 -2 16 -9 24 -7 36 5 15 15 15 17 -1 34 -14 13 -35 17 -92 17 -66 0 -76 3
-102 27 -40 39 -106 59 -198 60 -87 2 -125 -6 -125 -26 0 -7 -9 -21 -20 -31
-11 -10 -20 -26 -20 -37 0 -33 -37 -59 -78 -56 -33 3 -37 6 -34 29 3 34 -51
84 -107 99 -22 6 -43 15 -46 20 -3 6 -17 10 -30 10 -29 0 -41 16 -26 34 14 16
4 26 -25 26 -27 0 -36 11 -24 30 6 10 4 21 -7 32 -14 16 -14 20 2 45 18 26 17
27 -3 41 -14 9 -22 25 -22 41 0 15 -5 32 -10 37 -6 6 -8 27 -4 50 l6 40 141
12 c78 7 173 19 211 27 68 15 70 15 119 -10 28 -14 57 -25 64 -25 23 0 14 17
-17 30 -53 22 -42 31 90 80 96 35 100 35 100 15 0 -19 7 -19 81 2 l62 17 -34
11 c-18 6 -34 16 -36 21 -2 5 20 21 49 36 49 24 162 108 286 213 l53 45 49
-25 c27 -14 52 -25 55 -25 14 0 1 23 -39 70 -27 32 -48 69 -55 97 -7 25 -21
64 -33 86 -16 32 -23 77 -33 216 -8 97 -17 184 -20 194 -9 21 -48 22 -69 1z
m-23 -260 c3 -4 -1 -17 -9 -30 -9 -13 -13 -28 -10 -33 7 -11 -31 -41 -51 -41
-7 0 -20 11 -29 25 -16 25 -16 27 11 55 27 28 72 40 88 24z m-383 -64 c0 -5
-7 -10 -16 -10 -8 0 -12 5 -9 10 3 6 10 10 16 10 5 0 9 -4 9 -10z m-634 -58
c-8 -9 -19 -13 -22 -9 -10 9 16 38 28 31 6 -4 4 -13 -6 -22z m442 -11 c7 -4
18 -41 23 -82 10 -70 10 -74 -11 -91 -44 -35 -98 -13 -134 54 l-19 34 28 42
c15 22 34 43 43 45 29 8 56 7 70 -2z m-353 -45 l30 -14 -28 -11 c-35 -14 -33
-14 -51 5 -34 34 -7 45 49 20z m-55 -74 c0 -15 -24 -32 -46 -32 -30 0 -39 16
-17 29 21 12 63 14 63 3z m-655 -682 c-3 -5 -11 -10 -16 -10 -6 0 -7 5 -4 10
3 6 11 10 16 10 6 0 7 -4 4 -10z m-170 -40 c3 -5 -1 -26 -10 -46 -22 -54 -20
-74 10 -74 28 0 32 -12 10 -30 -13 -10 -13 -15 -3 -21 10 -6 7 -15 -11 -39
-27 -37 -24 -44 14 -30 39 15 43 5 12 -28 -28 -29 -35 -56 -17 -67 16 -10 12
-95 -4 -101 -14 -5 -90 28 -100 45 -3 5 1 14 9 21 8 7 15 17 15 23 0 5 -8 3
-17 -5 -24 -21 -59 -31 -83 -23 -19 6 -29 35 -11 35 4 0 19 28 31 63 12 34 37
91 55 127 18 36 38 83 45 105 7 22 15 43 17 48 6 10 31 9 38 -3z m56 -43 c-13
-13 -26 -3 -16 12 3 6 11 8 17 5 6 -4 6 -10 -1 -17z m1269 -269 l25 -23 -27
-3 c-33 -4 -68 13 -68 33 0 23 43 18 70 -7z m145 2 c-3 -5 -10 -10 -16 -10 -5
0 -9 5 -9 10 0 6 7 10 16 10 8 0 12 -4 9 -10z m80 -62 c-66 -79 -113 -89 -157
-34 -40 50 -18 64 105 65 l79 1 -27 -32z m244 -115 c78 -54 55 -80 -34 -39
-58 28 -63 34 -43 54 18 18 34 15 77 -15z m-339 -18 c0 -8 -7 -15 -16 -15 -14
0 -14 3 -4 15 7 8 14 15 16 15 2 0 4 -7 4 -15z m-500 -35 c0 -5 -12 -10 -26
-10 -14 0 -23 4 -19 10 3 6 15 10 26 10 10 0 19 -4 19 -10z m673 -41 c8 -62
20 -79 58 -79 25 0 29 -4 29 -26 0 -25 2 -26 38 -21 20 3 44 8 52 11 10 3 22
-6 35 -27 25 -40 75 -51 197 -42 l87 6 6 -48 c4 -26 9 -56 12 -66 3 -10 -7
-29 -26 -47 -28 -28 -35 -30 -93 -28 -54 2 -68 -2 -102 -25 -68 -47 -180 -26
-121 23 8 7 15 15 15 19 0 11 -105 40 -172 47 -46 5 -68 11 -68 20 0 7 4 15
10 19 19 12 -3 35 -63 65 -62 31 -112 40 -105 18 2 -6 18 -16 36 -22 34 -12
40 -33 7 -28 -29 5 -122 70 -145 103 -26 35 -25 56 1 64 22 7 68 -9 182 -63 4
-2 7 12 7 32 0 19 5 38 11 42 14 8 29 -14 29 -42 0 -16 11 -26 43 -38 46 -17
97 -21 97 -8 0 5 -24 22 -52 37 -60 32 -74 48 -82 88 -8 40 9 67 43 67 26 0
29 -3 34 -51z m-253 26 c0 -9 -9 -15 -25 -15 -16 0 -25 6 -25 15 0 9 9 15 25
15 16 0 25 -6 25 -15z m750 6 c0 -9 -35 -25 -87 -40 -38 -11 -56 4 -21 18 79
30 108 36 108 22z m-998 -63 c3 -13 9 -30 12 -40 12 -27 -28 -32 -80 -9 -52
23 -53 36 -5 68 38 26 65 18 73 -19z m586 10 c-7 -19 -31 -21 -53 -4 -19 15
-18 15 18 16 27 0 37 -4 35 -12z m156 -49 c-9 -15 -52 -29 -69 -23 -25 10 -17
22 23 31 40 10 56 8 46 -8z m241 -9 c-11 -5 -46 -14 -77 -20 -31 -6 -62 -18
-68 -26 -14 -16 -86 -19 -95 -4 -10 16 13 48 37 53 46 9 224 6 203 -3z m-1235
-125 c9 -25 76 -79 111 -90 11 -4 17 -11 14 -16 -10 -15 -60 -10 -109 12 -26
11 -57 19 -69 17 -18 -3 -14 -8 28 -32 71 -42 88 -58 73 -68 -23 -14 -75 -9
-135 14 -75 28 -83 35 -83 70 0 67 53 117 128 118 26 0 34 -5 42 -25z m-130
-320 c0 -2 -14 -20 -31 -40 -22 -25 -39 -35 -60 -35 -40 0 -36 14 14 49 37 26
77 40 77 26z m47 -72 l10 -48 11 28 c14 33 35 31 40 -4 2 -13 9 -30 14 -37 13
-15 11 -18 -35 -37 -37 -15 -37 -15 -37 8 0 23 -3 24 -50 19 -27 -2 -50 -1
-50 2 0 20 66 116 80 116 4 0 12 -21 17 -47z m-3747 -213 c0 -20 5 -30 15 -30
9 0 21 -12 27 -26 11 -22 10 -28 -7 -40 -10 -8 -27 -14 -38 -14 -13 0 -17 -5
-12 -19 3 -11 -2 -28 -14 -42 -13 -16 -17 -33 -14 -54 3 -20 -10 -69 -40 -150
-58 -156 -81 -231 -172 -575 l-76 -285 -126 -224 c-74 -131 -137 -255 -151
-299 -21 -63 -29 -76 -55 -87 -20 -8 -31 -20 -33 -36 -1 -13 -5 -34 -9 -46 -5
-16 -2 -23 14 -28 22 -7 29 -39 10 -50 -6 -4 -20 2 -32 13 -12 11 -35 24 -52
28 -16 4 -42 14 -57 23 -29 16 -38 41 -14 41 7 0 53 39 103 88 81 79 93 96
127 177 38 89 103 216 136 265 10 14 20 43 24 65 4 22 18 59 32 82 13 23 24
51 24 63 0 12 9 35 20 50 11 16 34 61 51 100 26 61 29 80 24 121 -5 37 -1 64
18 121 14 40 35 126 47 191 12 65 39 178 61 250 22 73 51 169 65 214 34 116
104 191 104 113z m380 -50 c-20 -13 -43 -13 -35 0 3 6 16 10 28 10 18 0 19 -2
7 -10z m-15 -120 c-3 -5 -13 -10 -21 -10 -8 0 -74 -24 -148 -54 -73 -29 -146
-56 -162 -60 l-29 -7 21 21 c13 13 82 43 165 71 144 48 186 58 174 39z m1630
-55 c-55 -18 -113 -36 -129 -39 -26 -6 -28 -5 -17 8 18 22 157 65 206 65 35
-1 28 -5 -60 -34z m-190 -5 c-3 -5 -12 -10 -18 -10 -7 0 -6 4 3 10 19 12 23
12 15 0z m-1521 -19 c-11 -11 -147 -65 -189 -75 -54 -13 -16 8 88 50 97 39
122 45 101 25z m1886 9 c0 -10 -7 -12 -175 -50 -55 -13 -124 -31 -154 -41 -30
-11 -61 -19 -70 -18 -40 2 148 65 294 99 96 22 105 23 105 10z m-475 -89 c-16
-15 -65 -25 -65 -13 0 11 21 19 55 21 12 1 15 -3 10 -8z m-1385 -30 c0 -25
-354 -159 -387 -147 -26 10 -5 24 80 52 45 15 127 44 182 65 104 40 125 45
125 30z m-213 -16 c-25 -18 -113 -39 -135 -30 -16 6 -15 7 3 18 11 6 45 14 75
18 30 3 60 7 65 7 6 1 2 -5 -8 -13z m-581 -37 c-8 -52 -28 -75 -75 -88 -79
-22 -92 -4 -39 56 35 40 84 74 107 74 10 0 12 -10 7 -42z m738 -43 c-5 -12 2
-15 32 -15 24 0 35 -3 28 -10 -5 -5 -54 -12 -109 -15 -96 -5 -99 -5 -65 10 19
9 49 22 65 30 40 18 56 18 49 0z m606 -20 c0 -6 -33 -19 -73 -29 -40 -9 -25
11 16 23 38 11 57 13 57 6z m95 -19 c-16 -7 -43 -16 -60 -20 -42 -10 -20 10
25 22 50 14 70 13 35 -2z m-573 -26 c-12 -10 -79 -32 -152 -49 -72 -17 -176
-49 -231 -72 -100 -39 -168 -51 -104 -17 48 25 296 106 345 113 25 3 63 14 85
25 22 10 49 19 60 19 19 0 19 -1 -3 -19z m377 -34 c-25 -17 -133 -56 -155 -55
l-29 0 25 11 c110 49 130 61 130 76 0 13 4 11 16 -6 9 -13 14 -24 13 -26z
m-1084 -157 c-40 -175 -50 -205 -78 -236 -19 -21 -19 -24 -4 -41 15 -16 15
-22 0 -67 -40 -125 -46 -137 -74 -154 -31 -19 -166 -47 -176 -37 -9 8 11 50
66 136 89 139 218 384 251 475 18 50 35 97 38 105 4 11 7 9 9 -6 2 -12 -12
-91 -32 -175z m310 155 c-53 -25 -85 -31 -85 -14 0 10 84 39 115 39 12 -1 0
-10 -30 -25z m961 -29 c-11 -8 -36 -18 -55 -21 -20 -3 -46 -12 -58 -20 -12 -8
-27 -14 -33 -14 -19 0 -152 -61 -210 -96 -37 -23 -77 -37 -125 -44 -67 -11
-81 -10 -244 16 -50 8 -20 24 45 24 37 0 68 8 110 30 60 31 208 69 221 57 10
-11 2 -15 -52 -27 -86 -20 -98 -25 -103 -39 -8 -24 112 -8 156 21 20 13 58 32
83 41 40 15 46 21 42 40 -5 21 -4 21 16 -3 16 -21 21 -22 26 -9 3 9 5 22 3 30
-2 8 4 14 12 14 8 0 14 -6 13 -12 -4 -17 10 -16 87 7 79 23 91 24 66 5z m-586
0 c0 -11 -87 -43 -190 -69 -58 -15 -148 -45 -200 -68 -52 -22 -101 -43 -107
-45 -7 -3 -13 2 -13 10 0 23 155 84 322 126 46 12 101 28 123 36 42 15 65 18
65 10z m150 -4 c0 -12 -86 -41 -122 -41 -41 0 -26 17 30 34 55 17 92 20 92 7z
m-1075 -101 c-3 -5 -43 -10 -88 -10 -56 0 -112 -8 -175 -25 -105 -28 -128 -31
-92 -10 24 14 132 40 195 48 68 9 166 7 160 -3z m915 1 c-8 -5 -53 -14 -99
-20 -114 -17 -208 -46 -259 -83 -46 -32 -162 -81 -171 -72 -9 8 14 38 40 51
52 27 238 96 304 113 71 19 214 27 185 11z m956 -20 c-7 -10 -92 -41 -115 -41
-24 0 -1 18 44 34 46 17 79 20 71 7z m-306 -23 c-62 -18 -89 -28 -295 -103
-49 -18 -119 -36 -155 -39 -123 -13 -141 -18 -176 -48 l-34 -30 -18 22 c-17
21 -19 21 -57 6 -22 -8 -64 -19 -93 -25 -67 -14 -105 -33 -162 -83 -45 -40
-266 -156 -276 -145 -7 7 64 227 78 242 5 6 48 13 96 16 102 8 242 31 242 40
0 20 -142 18 -183 -3 -10 -5 -24 -5 -33 0 -11 6 7 18 70 46 l85 38 94 -16
c121 -20 273 -20 373 0 54 11 83 13 94 6 12 -7 35 -3 86 15 95 34 274 82 304
81 14 0 -4 -9 -40 -20z m260 -57 c0 -10 -30 -24 -37 -17 -3 3 -2 9 2 15 8 13
35 15 35 2z m-185 -29 c-9 -8 -58 -23 -302 -93 -35 -10 -63 -14 -63 -9 0 10
63 33 210 75 114 33 173 43 155 27z m63 -48 c-9 -9 -284 -90 -371 -109 -75
-16 -108 -14 -77 5 8 5 35 14 60 20 25 5 113 28 195 50 138 36 207 48 193 34z
m174 -41 c22 -20 23 -39 2 -47 -29 -11 -44 -6 -50 18 -11 44 14 60 48 29z
m-896 -58 c-11 -8 -29 -15 -40 -15 -21 1 -21 1 -2 15 11 8 29 15 40 15 21 -1
21 -1 2 -15z m182 -2 c-4 -20 -31 -28 -56 -18 -14 6 -12 10 13 21 40 18 47 17
43 -3z m614 -35 c-7 -7 -12 -8 -12 -2 0 14 12 26 19 19 2 -3 -1 -11 -7 -17z
m-252 3 c0 -11 -25 -21 -53 -21 -22 1 -22 1 -3 15 22 17 56 20 56 6z m-850 -7
c0 -20 -24 -44 -45 -44 -29 0 -31 7 -8 32 15 17 53 26 53 12z m75 -4 c-3 -5
-11 -10 -16 -10 -6 0 -7 5 -4 10 3 6 11 10 16 10 6 0 7 -4 4 -10z m289 -10
c-5 -5 -41 -31 -79 -57 -39 -27 -74 -58 -80 -70 -5 -12 -21 -27 -36 -33 -37
-16 -107 -82 -92 -87 7 -2 52 12 100 32 149 62 215 86 222 79 14 -14 -69 -66
-183 -114 -145 -62 -301 -146 -376 -204 -30 -24 -65 -48 -77 -55 -26 -13 -30
-31 -8 -31 9 0 20 -11 25 -25 19 -50 70 -15 70 47 0 38 72 91 233 171 87 43
173 80 190 83 l32 6 -33 -29 c-108 -93 -135 -122 -214 -230 -97 -133 -134
-193 -120 -193 16 0 60 49 162 180 54 69 108 134 120 145 l23 20 -18 -35 c-10
-19 -52 -84 -94 -145 -42 -60 -98 -153 -126 -205 -44 -83 -58 -101 -120 -148
-106 -80 -100 -94 17 -40 43 20 72 28 78 22 6 -6 -5 -34 -30 -74 -22 -36 -40
-68 -40 -72 0 -19 24 -4 71 45 44 45 49 48 32 18 -29 -53 -111 -120 -198 -161
-44 -21 -178 -98 -297 -171 -119 -74 -239 -147 -265 -163 -26 -16 -43 -31 -36
-33 15 -6 75 25 209 108 158 97 256 142 314 143 56 1 122 42 224 137 36 34 66
58 66 54 0 -3 -13 -26 -30 -50 -16 -24 -30 -55 -30 -70 0 -19 -9 -31 -37 -48
-54 -32 -19 -34 54 -3 60 25 70 26 58 6 -15 -25 -100 -54 -160 -55 -64 -1 -92
-13 -298 -123 -54 -29 -103 -50 -108 -46 -13 7 13 26 144 104 59 35 107 67
107 72 0 11 -79 -25 -156 -73 -319 -196 -315 -194 -444 -201 l-65 -3 -5 35
c-4 20 -10 41 -14 48 -10 17 18 48 52 57 22 5 286 123 415 185 23 11 36 13 34
6 -3 -10 -73 -51 -299 -174 -58 -31 -88 -53 -88 -64 0 -10 3 -18 6 -18 3 0 45
24 92 53 48 29 119 71 157 92 178 98 490 325 446 325 -8 0 -97 -45 -200 -99
-224 -120 -524 -261 -569 -268 l-32 -6 15 29 c8 16 15 37 15 46 0 20 30 41 83
58 54 17 66 7 23 -19 -70 -43 -27 -33 96 22 68 31 177 80 242 109 66 30 121
59 124 66 3 10 -5 9 -33 -2 -21 -9 -45 -16 -54 -16 -23 1 9 25 76 57 71 34 57
49 -15 16 -145 -66 -442 -193 -467 -199 -27 -7 -28 -6 -21 22 8 33 32 73 112
188 33 49 57 95 61 120 5 32 26 63 115 162 90 103 108 128 108 155 0 19 9 42
21 55 25 26 18 49 -11 34 -27 -14 -61 -74 -63 -112 -3 -45 -14 -61 -35 -49
-12 7 -25 3 -44 -11 l-28 -19 0 22 c0 12 29 74 64 138 35 64 88 163 117 221
l54 105 125 43 c69 24 178 54 242 68 64 13 170 42 235 63 120 40 165 49 147
31z m26 -56 c-8 -8 -23 -20 -34 -25 -15 -7 -13 -3 7 15 31 29 47 35 27 10z
m180 1 c0 -15 -38 -40 -47 -31 -7 7 26 46 39 46 4 0 8 -7 8 -15z m-118 -127
c-12 -12 -25 -18 -29 -14 -4 4 3 16 16 27 31 25 41 15 13 -13z m2369 -89 c-13
-11 -26 -17 -29 -14 -8 8 20 35 37 35 12 -1 11 -5 -8 -21z m849 11 c0 -5 -4
-10 -10 -10 -5 0 -10 5 -10 10 0 6 5 10 10 10 6 0 10 -4 10 -10z m-4638 -80
c-6 -50 -24 -79 -55 -89 -17 -6 -71 -35 -121 -64 -103 -60 -154 -83 -163 -73
-11 11 7 22 139 89 70 35 124 67 121 71 -14 13 -45 4 -115 -34 -40 -22 -80
-40 -88 -40 -26 1 18 29 127 82 57 27 108 58 114 69 15 29 45 20 41 -11z
m7953 21 c-17 -16 -287 -112 -304 -108 -20 5 52 38 179 83 94 33 143 43 125
25z m-7641 -11 c-13 -13 -155 -62 -161 -56 -6 6 30 25 91 46 60 22 85 25 70
10z m-464 -24 c-37 -14 -54 -11 -30 4 8 6 26 9 40 9 22 0 21 -2 -10 -13z
m5150 -45 c64 -15 7 -23 -117 -17 -146 7 -203 15 -203 29 0 11 261 2 320 -12z
m2903 -3 c21 -11 21 -11 2 -19 -11 -4 -32 -8 -46 -8 -15 -1 -75 -23 -135 -51
-60 -27 -147 -58 -194 -69 -138 -32 -240 -49 -240 -41 0 5 51 24 113 43 262
83 346 110 407 133 77 28 67 27 93 12z m-2768 -37 c-24 -21 -88 -33 -195 -37
-137 -5 -121 10 21 20 53 4 109 11 125 16 39 11 60 12 49 1z m-1035 -16 c0 -3
-19 -26 -41 -50 -40 -43 -44 -45 -100 -45 -32 0 -61 5 -64 10 -3 6 -22 10 -41
10 -41 0 -38 12 8 36 29 15 32 15 43 0 15 -20 34 -20 63 -1 40 28 132 56 132
40z m5086 -99 c15 -12 17 -18 8 -33 -24 -38 -67 -10 -50 33 7 18 17 18 42 0z
m-2001 -81 c-236 -108 -355 -155 -390 -155 -7 0 -18 -6 -24 -14 -13 -15 4 -26
41 -26 21 0 21 0 2 -21 -28 -32 -93 -59 -141 -59 -45 0 -68 20 -93 80 -10 25
-10 34 4 55 19 28 57 33 76 10 17 -21 43 -19 98 9 68 34 181 73 307 106 121
32 171 38 120 15z m2174 -54 c18 -11 8 -36 -18 -51 -19 -10 -21 -8 -21 18 0
40 12 50 39 33z m-6362 -87 c-27 -26 -51 -43 -55 -39 -9 8 73 85 90 85 7 0 -9
-21 -35 -46z m95 5 c-47 -42 -64 -35 -19 7 21 20 42 33 45 29 4 -4 -8 -20 -26
-36z m-2744 9 c-6 -16 -36 -34 -44 -25 -9 9 15 37 33 37 8 0 13 -5 11 -12z
m8930 -88 c-2 -9 -16 -16 -36 -18 -27 -3 -34 1 -42 24 -6 14 -7 43 -4 62 l7
36 39 -44 c21 -25 37 -52 36 -60z m-9441 64 c-3 -3 -12 -4 -19 -1 -8 3 -5 6 6
6 11 1 17 -2 13 -5z m-83 -35 c-10 -16 -85 -49 -113 -49 -35 0 -16 16 45 40
56 22 78 25 68 9z m3251 -18 c-3 -6 -15 -16 -26 -22 -18 -9 -19 -9 -10 9 10
19 32 33 40 26 1 -1 0 -7 -4 -13z m675 5 c0 -36 -187 -203 -205 -184 -6 6 187
198 198 198 4 0 7 -6 7 -14z m5478 -4 c3 -9 -2 -13 -14 -10 -9 1 -19 9 -22 16
-3 9 2 13 14 10 9 -1 19 -9 22 -16z m-5828 -21 c0 -17 -187 -179 -248 -215
-33 -20 11 35 80 99 108 100 168 142 168 116z m-210 -51 c-17 -21 -50 -54 -73
-71 l-42 -33 24 30 c25 30 113 114 119 114 2 0 -10 -18 -28 -40z m-3218 -2
c20 -20 20 -22 3 -35 -23 -16 -30 -16 -56 -3 -19 10 -26 40 -12 53 13 14 43 7
65 -15z m9388 -5 c0 -12 -33 -43 -45 -43 -7 0 -18 7 -25 15 -10 12 -8 16 11
24 29 12 59 14 59 4z m-6270 -28 c-7 -8 -17 -15 -23 -15 -5 0 -2 9 8 20 21 23
35 19 15 -5z m-89 0 c-1 -15 -24 -12 -29 3 -3 9 2 13 12 10 10 -1 17 -7 17
-13z m361 -27 c-7 -7 -12 -8 -12 -2 0 14 12 26 19 19 2 -3 -1 -11 -7 -17z
m-3488 -32 c31 -13 76 -59 76 -77 0 -5 -11 -16 -25 -25 -25 -16 -27 -16 -50 6
-14 13 -25 29 -25 37 0 7 -11 20 -25 29 -20 13 -23 19 -14 30 14 17 22 17 63
0z m3136 5 c0 -11 -58 -61 -71 -61 -17 0 -9 13 24 41 34 30 47 35 47 20z m260
-61 c-19 -16 -46 -41 -60 -55 -38 -37 -68 -31 -37 7 20 25 99 78 116 78 11 0
4 -11 -19 -30z m165 -9 c-6 -10 -93 -45 -141 -57 -40 -10 -22 11 34 41 46 23
119 34 107 16z m-3605 -14 c0 -20 -45 -59 -130 -112 -41 -26 -100 -67 -131
-91 -54 -43 -79 -54 -79 -35 0 25 15 42 53 60 23 12 76 50 117 86 65 57 139
104 163 105 4 0 7 -6 7 -13z m740 -52 c-13 -16 -60 -21 -60 -6 0 12 18 19 49
20 20 1 21 -1 11 -14z m2505 -15 c-3 -5 -16 -10 -28 -10 -18 0 -19 2 -7 10 20
13 43 13 35 0z m-2685 -54 c0 -3 -4 -8 -10 -11 -5 -3 -10 -1 -10 4 0 6 5 11
10 11 6 0 10 -2 10 -4z m-40 -10 c0 -2 -8 -10 -17 -17 -16 -13 -17 -12 -4 4
13 16 21 21 21 13z m787 -73 c-9 -9 -20 -13 -24 -9 -4 4 1 14 11 22 25 18 35
8 13 -13z m-98 -53 c-9 -5 -36 -12 -60 -15 l-44 -5 30 14 c34 17 101 22 74 6z
m86 -19 c-8 -14 -103 -48 -155 -55 -25 -4 -57 -9 -72 -12 -17 -3 -28 -1 -28 5
0 6 12 11 28 12 15 0 70 13 122 29 111 33 113 33 105 21z m-1671 -10 c7 -11
-50 -71 -67 -71 -7 0 -39 -18 -72 -40 -59 -39 -85 -49 -85 -31 0 22 177 151
206 151 7 0 15 -4 18 -9z m1602 -93 c-9 -13 -29 -45 -44 -71 -56 -99 -145
-230 -186 -273 -34 -35 -49 -44 -76 -44 -19 0 -149 39 -290 86 -313 106 -363
129 -314 148 9 3 90 6 180 6 119 0 174 4 198 14 19 8 66 44 106 80 69 63 109
81 125 56 9 -14 150 -11 210 5 28 7 63 13 79 14 28 1 28 0 12 -21z m-498 -50
c-7 -21 -53 -49 -97 -59 -79 -18 -78 9 3 47 55 26 100 32 94 12z m532 -116 c0
-12 -62 -84 -67 -78 -6 6 49 85 60 86 4 0 7 -3 7 -8z m-998 -160 c11 -11 -11
-16 -98 -27 -64 -8 -74 5 -34 39 29 24 32 24 77 11 25 -8 50 -18 55 -23z m978
-47 c0 -12 -40 -84 -55 -99 -20 -20 -35 -21 -35 -2 0 17 68 106 80 106 6 0 10
-2 10 -5z m-149 -55 c31 -17 22 -31 -18 -28 -39 3 -56 23 -26 31 10 3 19 5 21
6 2 0 12 -4 23 -9z m-191 -129 c0 -5 -25 -34 -56 -65 -31 -31 -60 -56 -65 -56
-22 0 -5 28 46 77 52 50 75 64 75 44z m123 -21 c54 0 7 -42 -73 -65 l-25 -7
23 24 c12 13 22 27 22 31 0 16 -21 5 -75 -39 -64 -52 -86 -51 -35 1 41 43 110
79 124 65 6 -6 23 -10 39 -10z m197 -80 c0 -5 -7 -10 -15 -10 -8 0 -15 5 -15
10 0 6 7 10 15 10 8 0 15 -4 15 -10z m-110 -19 c0 -5 -7 -14 -15 -21 -12 -10
-15 -10 -15 2 0 8 3 18 7 21 9 10 23 9 23 -2z m261 -22 c11 -5 17 -14 14 -20
-9 -13 -146 -82 -152 -76 -6 6 24 66 45 90 17 19 63 23 93 6z m-703 -155 c-9
-9 -162 -64 -178 -64 -24 0 25 30 83 51 49 17 107 26 95 13z m60 -99 c-58 -58
-112 -105 -120 -105 -15 1 201 209 217 209 6 0 -38 -47 -97 -104z m655 85 c62
-10 159 -24 215 -30 129 -14 148 -21 156 -57 4 -16 27 -54 52 -84 24 -29 47
-64 51 -77 11 -46 -5 -100 -47 -160 -32 -46 -44 -72 -48 -110 -5 -60 10 -92
43 -92 25 0 33 14 15 25 -5 3 -10 30 -10 58 0 43 6 63 35 107 48 74 78 157 71
195 -3 16 -24 57 -46 89 -22 33 -39 64 -37 70 6 16 89 8 107 -10 12 -12 15
-40 13 -137 -1 -101 -5 -135 -26 -197 -14 -41 -28 -100 -32 -130 -4 -30 -19
-102 -34 -160 -24 -92 -35 -115 -88 -190 -33 -47 -75 -102 -92 -124 -34 -42
-38 -76 -21 -186 4 -30 4 -59 0 -63 -13 -15 -51 3 -97 46 l-43 40 -80 -6 -79
-6 -62 53 c-82 72 -121 83 -219 60 -41 -9 -116 -19 -166 -21 -85 -5 -95 -3
-185 32 -109 43 -149 43 -251 0 -91 -38 -183 -44 -242 -15 -49 23 -55 38 -31
80 20 36 18 111 -5 161 -24 54 -26 116 -3 141 15 17 15 19 0 36 -15 16 -14 22
15 72 43 76 137 166 238 227 47 28 137 95 200 150 160 137 199 167 206 160 8
-8 -55 -83 -140 -167 -66 -65 -81 -88 -48 -75 9 3 41 11 71 16 74 14 287 102
329 137 39 31 48 44 57 84 7 35 69 78 113 78 18 0 83 -9 145 -20z m-404 -82
c-64 -88 -75 -97 -156 -133 -110 -48 -93 -12 36 76 42 29 96 75 121 102 62 70
62 41 -1 -45z m-389 5 c0 -3 -8 -15 -17 -25 -15 -17 -15 -20 -3 -28 12 -7 1
-23 -51 -77 -37 -37 -74 -82 -82 -99 -9 -16 -49 -58 -90 -92 -42 -34 -102 -92
-134 -129 -49 -56 -58 -63 -61 -45 -9 57 136 246 255 333 29 22 53 45 53 52 0
16 101 117 117 117 7 0 13 -3 13 -7z m-100 -22 c0 -8 -69 -41 -119 -56 -42
-13 -13 15 43 41 54 25 76 30 76 15z m530 -26 c-7 -9 -15 -13 -18 -10 -3 2 1
11 8 20 7 9 15 13 18 10 3 -2 -1 -11 -8 -20z m-761 -54 c-34 -28 -147 -83
-161 -79 -11 4 37 34 136 87 47 24 59 20 25 -8z m41 -52 c0 -5 -26 -22 -57
-36 -32 -14 -101 -45 -153 -68 -114 -51 -140 -60 -140 -46 0 19 68 61 121 76
30 8 90 30 134 49 88 39 95 41 95 25z m1720 -176 c0 -18 -35 -83 -45 -83 -6 0
6 61 17 83 5 9 13 17 18 17 6 0 10 -8 10 -17z m-990 -923 c0 -5 -2 -10 -4 -10
-3 0 -8 5 -11 10 -3 6 -1 10 4 10 6 0 11 -4 11 -10z m-276 -66 c12 -11 16 -35
16 -85 0 -56 4 -73 20 -89 11 -11 26 -20 33 -20 8 0 22 -9 32 -20 10 -11 27
-20 37 -20 34 0 32 29 -6 77 -20 26 -35 54 -34 62 5 27 37 23 68 -7 24 -24 30
-39 30 -72 0 -23 -4 -49 -10 -59 -14 -26 -82 -51 -140 -51 l-49 0 2 -40 c1
-21 -1 -39 -5 -40 -5 0 -33 0 -63 0 l-55 0 19 38 c11 21 27 44 35 51 21 17 20
56 -2 106 l-18 40 -85 0 c-77 0 -88 2 -117 27 -17 14 -37 28 -44 30 -10 4 -10
10 0 33 12 26 15 27 60 21 35 -4 60 -1 97 14 62 24 157 26 179 4z m86 12 c0
-11 -19 -15 -25 -6 -3 5 1 10 9 10 9 0 16 -2 16 -4z m-425 -192 c18 -19 42
-30 86 -38 37 -7 66 -18 72 -28 12 -18 -9 -204 -25 -225 -11 -14 -148 -46
-175 -41 -12 2 -17 11 -15 25 4 31 -12 36 -65 19 -27 -8 -86 -22 -132 -30 -85
-16 -111 -28 -111 -51 0 -8 -23 -14 -65 -17 -79 -7 -150 -40 -223 -104 -54
-47 -179 -126 -267 -168 -27 -13 -61 -36 -74 -50 -14 -14 -30 -26 -38 -26 -7
0 -48 -19 -90 -42 -127 -68 -133 -70 -157 -64 -12 3 -31 -1 -42 -8 -10 -7 -55
-16 -99 -19 -44 -3 -109 -16 -145 -27 -36 -12 -130 -39 -209 -61 -168 -46
-184 -54 -256 -119 -84 -76 -161 -107 -85 -35 30 29 39 55 19 55 -21 0 -66
-39 -108 -94 -46 -60 -90 -86 -144 -86 -46 0 -67 9 -67 28 0 8 -7 24 -17 34
-15 17 -15 19 3 39 15 17 16 23 6 40 -15 23 -6 27 121 60 45 11 152 44 237 72
124 40 170 51 230 53 52 1 89 8 120 23 25 11 53 21 62 21 31 0 220 69 276 101
32 17 107 64 167 104 61 41 160 94 220 120 179 76 558 289 595 334 8 10 26 24
39 31 26 13 18 26 -19 32 -21 3 -16 8 37 35 35 18 91 52 125 76 76 53 80 55
141 56 40 1 52 -4 72 -25z m325 -284 c0 -25 -175 -96 -217 -88 -14 3 -10 8 16
27 69 50 201 90 201 61z m-804 -175 c-11 -8 -29 -15 -40 -15 -21 1 -21 1 -2
15 11 8 29 15 40 15 21 -1 21 -1 2 -15z m-802 -186 c-3 -5 -10 -7 -15 -3 -5 3
-7 10 -3 15 3 5 10 7 15 3 5 -3 7 -10 3 -15z m-116 -62 c3 -25 -2 -30 -53 -52
-111 -49 -325 -93 -325 -67 0 11 89 56 209 104 143 57 164 59 169 15z m-1128
-463 c0 -3 -16 -25 -35 -48 -19 -24 -35 -53 -35 -65 0 -23 33 -41 76 -41 24 0
24 -1 -17 -62 -32 -47 -43 -74 -48 -116 -6 -52 -9 -58 -51 -87 -32 -23 -48
-42 -55 -70 -8 -28 -20 -42 -48 -56 -26 -14 -39 -29 -45 -52 -10 -37 -52 -69
-126 -95 -55 -19 -160 -109 -211 -183 -36 -51 -121 -139 -135 -139 -17 0 -11
25 16 74 15 26 23 50 20 54 -13 12 -71 -59 -112 -135 -22 -43 -52 -86 -66 -96
-60 -45 -97 25 -52 96 39 59 189 206 228 222 25 11 38 23 42 43 3 15 18 44 31
64 22 32 24 44 19 83 -7 43 -5 48 27 80 31 31 41 35 87 35 101 0 157 -55 95
-96 -31 -20 -57 -12 -90 31 -27 36 -49 44 -58 22 -7 -19 20 -77 36 -77 24 0
27 -26 6 -66 -10 -21 -19 -40 -19 -41 0 -7 67 32 105 60 52 40 125 109 125
119 0 4 -22 24 -50 44 -37 27 -57 51 -79 97 -18 37 -26 66 -21 71 5 5 27 2 52
-7 24 -10 51 -17 59 -17 9 0 37 -14 62 -31 71 -47 105 -20 52 43 -14 16 -25
40 -25 53 0 12 -7 28 -15 35 -39 32 -6 87 66 110 46 16 79 52 79 87 0 47 17
63 65 63 25 0 45 -3 45 -6z m306 -69 c-23 -17 -36 -19 -36 -6 0 11 18 19 40
20 11 0 10 -3 -4 -14z m-830 -800 c-33 -30 -64 -55 -70 -55 -12 0 -10 2 63 64
75 63 79 57 7 -9z"/>
<path d="M4400 6951 c-94 -29 -252 -135 -349 -235 -95 -98 -104 -121 -95 -245
l7 -97 -29 -23 c-16 -12 -57 -42 -91 -66 -35 -25 -63 -52 -63 -60 0 -14 3 -14
29 0 17 8 32 19 36 24 3 6 28 22 55 37 84 46 102 78 115 213 13 139 26 165
123 248 68 57 132 100 241 162 74 42 84 61 21 42z"/>
<path d="M4155 6266 c-11 -8 -14 -16 -8 -19 6 -4 18 0 28 7 11 8 14 16 8 19
-6 4 -18 0 -28 -7z"/>
<path d="M4047 6206 c-31 -13 -68 -31 -82 -40 -29 -19 -71 -42 -217 -120 -103
-55 -133 -76 -108 -76 13 0 148 72 245 130 33 19 80 44 105 55 50 21 130 65
130 71 0 8 -15 3 -73 -20z"/>
<path d="M4315 4572 c-55 -26 -183 -90 -285 -143 -102 -52 -201 -101 -220
-109 -47 -18 -200 -97 -224 -115 -47 -35 3 -23 119 29 127 57 202 80 536 161
214 52 368 100 389 121 22 21 4 19 -139 -21 -176 -48 -415 -105 -442 -105 -20
0 -21 2 -9 13 8 8 39 24 69 36 76 30 296 148 311 166 20 24 2 18 -105 -33z"/>
<path d="M4767 4452 c-45 -43 -104 -94 -131 -112 -48 -33 -275 -148 -425 -217
-50 -22 -71 -37 -64 -44 24 -24 345 120 504 226 95 63 176 141 205 197 24 47
-2 32 -89 -50z"/>
<path d="M3481 4227 c-70 -92 -115 -212 -92 -246 15 -23 41 -5 41 28 0 40 43
154 80 212 17 25 30 49 30 52 0 20 -24 1 -59 -46z"/>
<path d="M4535 4105 c-55 -30 -129 -67 -165 -82 -80 -33 -101 -49 -77 -59 27
-10 277 116 347 175 45 37 -1 22 -105 -34z"/>
<path d="M4765 4120 c-3 -5 3 -10 14 -10 12 0 21 5 21 10 0 6 -6 10 -14 10 -8
0 -18 -4 -21 -10z"/>
<path d="M4746 4040 c-43 -41 -83 -68 -131 -89 -119 -50 -271 -99 -356 -116
-91 -17 -94 -18 -84 -36 14 -22 116 -2 287 55 176 58 231 82 286 123 33 25 92
98 92 115 0 23 -38 2 -94 -52z"/>
<path d="M3977 3950 c-130 -24 -224 -53 -323 -100 -144 -67 -118 -80 47 -25
127 43 269 80 369 95 80 12 105 24 80 40 -21 13 -59 11 -173 -10z"/>
<path d="M3438 3020 c-54 -3 -101 -9 -104 -13 -4 -4 1 -16 10 -26 10 -11 25
-35 34 -53 25 -49 62 -50 85 -3 19 40 36 44 55 15 13 -21 56 -27 67 -10 4 6 2
16 -3 23 -6 7 -12 25 -14 42 -4 35 -1 34 -130 25z"/>
<path d="M8915 10660 c-9 -14 4 -70 16 -70 9 0 39 52 39 70 0 13 -47 13 -55 0z"/>
<path d="M8766 10574 c-23 -22 -20 -34 8 -34 26 0 51 24 41 40 -9 15 -31 12
-49 -6z"/>
<path d="M8238 10539 c-10 -5 -18 -19 -18 -30 0 -18 4 -19 38 -13 44 8 57 17
49 38 -7 18 -43 21 -69 5z"/>
<path d="M7710 10284 c-6 -14 -10 -41 -10 -60 0 -27 4 -34 20 -34 15 0 20 7
20 29 0 16 3 43 6 60 5 25 3 31 -10 31 -9 0 -21 -12 -26 -26z"/>
<path d="M8870 10213 c-25 -11 -30 -17 -18 -20 9 -2 30 3 47 12 55 28 30 35
-29 8z"/>
<path d="M8777 10163 c-4 -3 -7 -11 -7 -17 0 -6 5 -5 12 2 6 6 9 14 7 17 -3 3
-9 2 -12 -2z"/>
<path d="M9304 10007 c-6 -17 57 -150 71 -149 18 2 17 51 -3 96 -22 48 -58 77
-68 53z"/>
<path d="M8080 9945 c0 -10 40 -24 54 -19 28 11 17 24 -19 24 -19 0 -35 -2
-35 -5z"/>
<path d="M8621 9872 c-63 -26 -117 -53 -119 -61 -4 -11 2 -12 24 -7 41 10 224
98 224 108 0 13 -8 10 -129 -40z"/>
<path d="M9336 9811 c-13 -20 13 -102 42 -135 36 -41 48 -74 33 -89 -8 -8 -19
-5 -41 11 -16 12 -36 22 -44 22 -19 0 -126 -106 -126 -124 0 -8 12 -28 26 -45
33 -39 70 -42 84 -6 10 27 45 34 82 14 11 -6 22 -8 25 -5 8 8 32 128 33 163 0
18 -11 53 -25 79 -14 26 -25 56 -25 66 0 30 -19 58 -40 58 -10 0 -21 -4 -24
-9z"/>
<path d="M8163 9767 c-71 -8 -93 -14 -93 -25 0 -13 17 -14 108 -9 110 6 182
21 182 37 0 12 -70 10 -197 -3z"/>
<path d="M6836 9733 c-27 -29 -77 -144 -129 -298 -19 -55 -53 -145 -76 -199
-22 -55 -41 -101 -41 -103 0 -2 11 -3 24 -3 33 0 56 35 56 85 0 50 60 238 97
307 15 27 38 58 51 69 18 14 23 25 18 43 -4 18 1 36 19 62 42 61 28 88 -19 37z"/>
<path d="M7139 9694 l-45 -45 -19 40 c-15 34 -23 41 -46 41 -39 0 -44 -15 -20
-54 12 -18 21 -45 21 -60 0 -29 11 -33 30 -11 7 8 21 15 31 15 26 0 109 78
109 101 0 28 -11 24 -61 -27z"/>
<path d="M8980 9690 c0 -12 78 -35 88 -26 4 4 -2 14 -12 22 -22 16 -76 19 -76
4z"/>
<path d="M8737 9673 c-4 -3 -7 -18 -7 -32 0 -34 -26 -71 -49 -71 -10 0 -35 7
-54 15 -20 8 -44 15 -53 15 -16 0 -16 -1 -1 -18 24 -26 22 -36 -18 -77 -33
-36 -36 -37 -82 -30 -78 11 -81 17 -38 64 21 23 35 44 33 47 -3 3 -32 -9 -64
-25 -33 -17 -71 -33 -86 -36 -42 -8 -34 -25 11 -25 27 0 48 -8 68 -24 16 -13
46 -29 68 -35 22 -6 53 -22 70 -36 l29 -24 -22 -24 c-29 -31 -28 -39 6 -26 42
16 92 69 116 124 13 28 40 70 61 95 56 67 74 130 37 130 -10 0 -22 -3 -25 -7z"/>
<path d="M9216 9651 c-4 -7 -5 -15 -2 -18 9 -9 19 4 14 18 -4 11 -6 11 -12 0z"/>
<path d="M8910 9589 c-19 -12 -57 -29 -85 -38 -41 -13 -56 -25 -82 -65 -18
-26 -33 -51 -33 -55 0 -3 25 -32 54 -63 46 -49 60 -58 89 -58 47 0 61 20 54
76 -4 37 -1 50 15 66 20 20 23 20 109 2 29 -6 60 17 58 44 -1 22 -103 112
-127 112 -9 0 -33 -10 -52 -21z"/>
<path d="M6863 9590 c-20 -8 -25 -19 -38 -82 -4 -22 5 -23 31 -3 10 8 22 15
27 15 13 0 8 -58 -9 -99 -9 -22 -14 -46 -12 -53 3 -7 29 35 58 95 37 73 50
111 44 117 -15 15 -75 21 -101 10z"/>
<path d="M9176 9298 l-34 -73 57 -3 c66 -3 111 10 111 34 0 27 -62 114 -81
114 -13 0 -29 -22 -53 -72z"/>
<path d="M9005 9330 c-3 -11 -18 -29 -32 -40 l-26 -20 30 0 c36 0 53 16 53 52
0 32 -16 37 -25 8z"/>
<path d="M6799 9268 c-19 -41 -19 -45 -5 -80 17 -39 36 -48 54 -25 12 14 -6
147 -20 147 -5 0 -17 -19 -29 -42z"/>
<path d="M8355 9285 c-14 -13 -25 -36 -25 -50 0 -23 4 -26 28 -23 23 3 27 7
24 30 -3 21 3 30 27 43 39 20 39 25 1 25 -19 0 -40 -9 -55 -25z"/>
<path d="M8900 9207 l-35 -11 29 -4 c17 -2 35 3 44 12 19 18 11 19 -38 3z"/>
<path d="M7412 8869 c4 -12 37 -32 163 -97 90 -47 115 -52 115 -23 0 23 -67
67 -162 104 -69 28 -122 35 -116 16z"/>
<path d="M5946 8769 c-60 -5 -111 -11 -114 -14 -7 -7 273 -6 292 1 9 3 16 10
16 15 0 10 -38 10 -194 -2z"/>
<path d="M6850 8750 c-21 -13 -7 -22 51 -31 58 -9 89 -32 89 -63 0 -12 7 -32
16 -45 21 -30 22 -114 1 -163 -12 -28 -26 -41 -63 -57 -26 -12 -68 -38 -93
-59 -43 -35 -99 -67 -271 -153 -67 -33 -133 -55 -273 -91 -59 -14 -41 -34 29
-30 89 4 166 28 314 99 74 36 145 70 157 75 12 6 43 29 70 51 26 22 65 51 86
65 44 29 69 73 91 159 20 75 20 116 2 151 -16 31 -61 74 -93 91 -26 13 -92 14
-113 1z"/>
<path d="M5520 8720 c-11 -7 -1 -10 35 -10 28 0 57 5 65 10 11 7 1 10 -35 10
-27 0 -57 -5 -65 -10z"/>
<path d="M5865 8680 c-15 -6 -8 -9 28 -9 26 -1 47 4 47 9 0 12 -47 12 -75 0z"/>
<path d="M5650 8660 c-17 -6 -2 -8 53 -9 45 -1 77 3 77 9 0 12 -94 12 -130 0z"/>
<path d="M5392 8638 c-31 -7 -42 -14 -38 -23 6 -16 -3 -19 -92 -36 -34 -6 -65
-16 -68 -20 -17 -28 221 17 242 45 6 9 31 23 55 30 l44 14 -50 0 c-27 0 -69
-4 -93 -10z"/>
<path d="M4986 8624 c-33 -8 -62 -17 -65 -20 -10 -10 113 8 144 21 29 13 29
13 5 13 -14 0 -52 -6 -84 -14z"/>
<path d="M8250 8501 c8 -5 31 -11 51 -15 20 -3 54 -22 77 -42 54 -46 55 -23 2
28 -37 34 -46 38 -93 38 -33 0 -47 -4 -37 -9z"/>
<path d="M6275 8476 c-51 -16 -343 -144 -372 -164 -13 -8 -23 -18 -23 -23 0
-15 49 1 180 61 147 67 178 78 274 94 49 9 71 17 71 27 0 19 -77 22 -130 5z"/>
<path d="M4350 8380 c0 -17 39 -50 60 -50 30 0 24 16 -14 39 -37 24 -46 26
-46 11z"/>
<path d="M4140 8366 c0 -10 24 -44 52 -77 46 -52 57 -59 90 -59 20 0 40 4 43
10 10 17 -15 51 -46 62 -18 6 -29 17 -29 29 0 20 -28 35 -82 46 -22 4 -28 2
-28 -11z"/>
<path d="M7023 8302 c-6 -4 -13 -20 -15 -36 -2 -25 -21 -42 -123 -112 -66 -46
-121 -88 -123 -94 -12 -35 259 148 293 197 14 21 25 41 25 45 0 10 -41 10 -57
0z"/>
<path d="M8384 8291 c-45 -27 -53 -44 -17 -34 41 11 70 8 149 -16 73 -22 132
-55 144 -81 20 -44 28 -55 41 -55 21 0 16 71 -7 96 -27 30 -58 44 -144 64 -41
10 -87 24 -102 31 -33 17 -27 18 -64 -5z"/>
<path d="M5710 8240 c-75 -27 -263 -122 -330 -168 -30 -20 -79 -67 -108 -104
-43 -54 -68 -74 -133 -108 -74 -39 -107 -70 -56 -54 58 18 289 157 452 272 66
47 153 103 193 125 104 56 94 76 -18 37z"/>
<path d="M6706 8139 c-39 -46 -44 -59 -21 -59 15 0 71 87 62 96 -2 3 -21 -14
-41 -37z"/>
<path d="M8720 8039 c0 -7 12 -32 26 -57 l27 -45 -17 -98 c-20 -121 -20 -159
-2 -159 15 0 43 91 53 171 5 42 2 60 -17 98 -12 25 -28 57 -34 70 -12 27 -36
40 -36 20z"/>
<path d="M7323 8032 c-6 -4 -15 -20 -18 -35 -14 -54 -143 -131 -405 -240 -196
-82 -210 -88 -210 -99 0 -11 -4 -12 112 28 132 46 292 118 387 173 83 49 186
142 179 163 -5 16 -28 21 -45 10z"/>
<path d="M5355 7871 c-67 -69 -83 -81 -136 -95 -33 -10 -57 -22 -53 -27 9 -15
73 0 122 28 52 30 175 173 148 173 -3 0 -39 -35 -81 -79z"/>
<path d="M8317 7823 c-24 -38 -52 -98 -127 -273 -49 -113 -55 -130 -44 -130 5
0 41 66 79 147 39 81 87 176 108 210 20 34 37 67 37 72 0 24 -31 8 -53 -26z"/>
<path d="M8590 7699 c0 -6 -18 -49 -40 -96 -44 -94 -45 -97 -29 -87 13 8 89
162 89 181 0 7 -4 13 -10 13 -5 0 -10 -5 -10 -11z"/>
<path d="M8685 7622 c12 -12 98 -57 138 -71 35 -14 34 -35 -3 -73 -16 -16 -30
-38 -30 -49 0 -43 -170 -179 -317 -253 -48 -24 -69 -46 -43 -46 17 0 150 70
222 116 37 24 98 75 136 114 37 38 73 70 79 70 6 0 17 -15 23 -34 6 -19 30
-55 54 -80 33 -36 49 -46 74 -46 38 0 52 18 26 36 -71 50 -151 167 -156 231
-3 33 -6 38 -36 44 -18 4 -42 15 -52 24 -21 19 -133 36 -115 17z"/>
<path d="M7070 7434 c-127 -61 -228 -103 -400 -166 -91 -33 -181 -69 -201 -79
-52 -26 -99 -68 -99 -87 0 -10 16 -39 35 -66 22 -31 35 -61 35 -80 0 -49 13
-60 37 -34 39 41 37 67 -6 137 -22 36 -37 69 -34 74 11 18 149 75 318 132 94
32 197 71 230 88 60 30 175 104 175 112 0 10 -18 4 -90 -31z"/>
<path d="M8165 7348 c-38 -45 -112 -127 -165 -182 -190 -201 -241 -258 -236
-263 18 -18 344 321 434 451 29 42 48 76 44 76 -5 0 -40 -37 -77 -82z"/>
<path d="M7675 7144 c-22 -19 -69 -56 -104 -81 -35 -26 -59 -49 -52 -51 16 -5
71 34 151 107 69 64 73 85 5 25z"/>
<path d="M3264 7086 c-3 -21 -16 -43 -28 -51 -12 -8 -85 -39 -163 -68 -141
-54 -207 -87 -187 -94 6 -2 42 10 81 26 38 17 105 39 149 51 104 28 150 58
165 110 9 30 9 44 1 52 -8 8 -12 1 -18 -26z"/>
<path d="M7748 7023 c-68 -54 -141 -111 -163 -127 -22 -16 -42 -31 -44 -33 -2
-2 -2 -6 1 -9 7 -6 84 31 93 45 3 6 51 46 108 89 56 44 113 91 126 106 50 53
-2 23 -121 -71z"/>
<path d="M2847 7073 c-4 -3 -7 -15 -7 -26 0 -16 3 -17 15 -7 8 7 15 19 15 26
0 15 -12 19 -23 7z"/>
<path d="M5568 7019 c-27 -17 -48 -35 -48 -40 0 -16 43 -31 73 -25 l31 6 -22
-23 c-27 -29 -28 -47 -2 -47 14 0 19 -6 17 -20 -2 -17 11 -25 68 -46 39 -14
90 -30 115 -36 25 -6 53 -17 63 -26 15 -13 26 -14 78 -4 65 12 117 38 103 52
-5 5 -28 5 -52 -1 -51 -11 -62 -6 -62 26 0 31 -4 33 -89 45 -86 12 -114 28
-148 89 -32 56 -53 81 -67 81 -6 0 -32 -14 -58 -31z"/>
<path d="M7482 6908 c-19 -19 -14 -30 10 -26 13 2 24 11 26 21 4 20 -18 23
-36 5z"/>
<path d="M1993 6834 c-4 -10 1 -38 11 -63 30 -75 31 -107 7 -114 -11 -3 -25
-18 -31 -34 -22 -59 -37 -78 -110 -132 -50 -37 -70 -57 -58 -59 41 -8 164 91
199 160 25 49 54 52 44 6 -13 -62 -37 -97 -92 -135 -30 -20 -50 -39 -44 -41
26 -9 143 93 172 150 26 50 24 85 -7 144 -14 27 -32 67 -39 89 -13 43 -41 58
-52 29z"/>
<path d="M6123 6826 c-24 -21 -27 -30 -25 -75 l2 -51 -60 7 c-70 7 -82 -9 -25
-33 l36 -15 -7 -57 -6 -57 73 -73 c80 -79 95 -78 65 2 -11 28 -32 54 -61 76
-25 19 -45 34 -45 35 0 1 25 1 54 1 62 -1 98 19 52 28 -14 4 -38 9 -53 12
l-28 6 25 16 c73 48 121 131 105 182 -9 29 -66 27 -102 -4z"/>
<path d="M2704 6750 c-22 -16 -60 -57 -85 -91 -140 -196 -280 -359 -330 -384
-42 -22 -163 -46 -259 -50 -121 -6 -116 -25 8 -25 201 0 271 29 421 174 109
107 178 192 216 266 13 25 42 66 65 93 34 38 38 47 23 47 -11 0 -37 -13 -59
-30z"/>
<path d="M11992 6638 c-5 -7 -13 -24 -17 -37 -4 -13 -22 -44 -41 -68 -19 -25
-37 -62 -40 -84 -9 -57 -24 -48 -24 14 0 59 -6 72 -27 56 -8 -8 -13 -35 -13
-80 0 -40 -7 -86 -16 -109 -13 -31 -14 -46 -5 -71 6 -18 11 -40 11 -50 0 -11
16 -40 37 -66 20 -27 51 -79 70 -118 42 -86 65 -119 131 -183 47 -46 52 -49
71 -35 28 19 27 59 -4 125 -14 29 -25 61 -25 71 0 10 -11 29 -25 42 -18 19
-35 25 -70 25 -54 0 -63 25 -14 43 23 9 29 16 24 32 -3 11 -10 43 -16 70 -6
28 -18 74 -26 104 -24 81 -7 207 31 234 16 11 112 -1 184 -25 44 -14 67 -17
74 -10 23 23 -30 56 -136 83 -38 10 -74 25 -78 33 -11 19 -42 21 -56 4z m-82
-280 c11 -18 20 -43 20 -56 0 -19 -5 -23 -27 -20 -38 4 -61 47 -45 82 15 34
28 33 52 -6z m60 -177 c0 -28 -5 -53 -10 -56 -14 -9 -55 19 -76 50 -25 38 -12
55 41 55 l45 0 0 -49z m50 -171 c9 -16 8 -22 -4 -26 -21 -8 -36 3 -36 27 0 25
26 25 40 -1z"/>
<path d="M6310 6614 c-75 -25 -110 -47 -97 -60 4 -4 51 7 104 24 54 17 108 34
121 37 12 4 22 11 22 16 0 17 -74 9 -150 -17z"/>
<path d="M5367 6623 c-16 -15 -5 -44 26 -66 17 -13 100 -45 182 -71 83 -26
180 -64 217 -84 50 -27 71 -33 79 -25 27 27 -27 56 -266 139 -131 46 -186 70
-202 89 -24 27 -26 28 -36 18z"/>
<path d="M9765 6594 c-11 -3 -50 -12 -87 -20 -43 -10 -68 -21 -68 -30 0 -22
47 -28 90 -10 47 19 148 21 185 4 21 -9 29 -9 41 3 13 14 12 17 -5 33 -20 18
-114 30 -156 20z"/>
<path d="M8755 6453 c-73 -20 -121 -26 -255 -29 -91 -3 -171 -7 -179 -10 -26
-8 9 -33 57 -39 83 -11 92 -14 92 -36 0 -11 7 -22 16 -26 30 -11 297 48 282
63 -5 5 -150 -10 -205 -22 -20 -4 -33 -3 -33 4 0 5 21 13 48 16 66 10 241 56
274 72 15 8 30 18 33 24 10 16 -31 10 -130 -17z"/>
<path d="M1738 6380 c-54 -11 -108 -24 -120 -31 -33 -17 -78 -61 -78 -76 0
-21 14 -15 49 17 39 38 63 47 143 55 64 6 138 31 138 47 0 11 -18 9 -132 -12z"/>
<path d="M2066 6354 c-22 -8 -77 -17 -123 -21 -46 -3 -83 -9 -83 -13 0 -13
124 -21 169 -11 40 9 92 44 80 54 -2 3 -22 -2 -43 -9z"/>
<path d="M810 6343 c0 -5 26 -18 58 -30 31 -11 80 -30 107 -41 28 -11 90 -32
138 -47 49 -15 118 -42 153 -61 35 -19 73 -34 84 -34 19 0 272 -81 347 -111
25 -10 36 -10 44 -2 9 9 -1 17 -37 35 -45 21 -49 26 -46 56 1 18 -3 42 -9 53
-12 23 -56 42 -77 34 -12 -4 -7 -14 22 -43 20 -21 33 -41 30 -45 -27 -27 -260
35 -368 98 -38 21 -407 145 -434 145 -7 0 -12 -3 -12 -7z"/>
<path d="M2380 6147 c-30 -13 -64 -28 -75 -35 -18 -10 -18 -11 -2 -12 19 0
147 55 147 64 0 10 -12 7 -70 -17z"/>
<path d="M5900 6155 c0 -8 6 -15 14 -15 7 0 19 7 26 15 11 13 8 15 -14 15 -16
0 -26 -5 -26 -15z"/>
<path d="M1523 5867 c-37 -40 -46 -66 -33 -96 12 -29 74 -71 106 -71 11 -1 30
-7 44 -15 24 -14 23 -14 -30 -15 l-54 0 21 -22 c17 -16 39 -23 90 -27 l68 -6
0 -34 c0 -29 6 -39 35 -57 19 -13 49 -34 66 -48 41 -34 70 -33 180 5 94 32
100 32 285 13 44 -4 64 -2 90 12 l34 18 -80 8 c-120 11 -165 18 -165 28 0 4
21 16 48 26 104 38 136 54 125 65 -13 13 -92 -13 -253 -86 -156 -71 -187 -75
-260 -38 -48 25 -57 34 -73 78 -24 65 -48 90 -122 127 -98 49 -121 80 -95 128
15 28 -4 33 -27 7z"/>
<path d="M3296 5875 c-11 -8 -40 -15 -65 -15 -25 0 -51 -4 -57 -8 -18 -12 -97
-113 -147 -188 -26 -39 -54 -77 -62 -84 -8 -7 -15 -21 -15 -31 0 -10 -13 -25
-30 -34 -31 -16 -37 -29 -20 -40 16 -10 -6 -32 -45 -45 -47 -15 -120 -100 -87
-100 5 0 16 8 26 19 24 26 95 56 106 45 6 -6 0 -29 -15 -62 -35 -76 -49 -127
-41 -156 5 -22 12 -26 46 -26 45 0 58 14 36 39 -22 24 -21 29 22 107 39 71 57
98 128 207 22 34 64 107 93 162 65 122 74 132 122 145 41 11 63 38 53 64 -8
20 -23 20 -48 1z m-156 -160 c0 -17 -58 -143 -72 -157 -10 -10 -18 -22 -18
-27 0 -12 -39 -25 -48 -16 -4 3 4 15 18 25 20 15 22 20 11 34 -12 14 -9 22 14
59 37 56 66 87 82 87 7 0 13 -2 13 -5z"/>
<path d="M4767 5817 c-11 -29 -9 -53 4 -40 6 6 9 21 7 34 -3 21 -4 22 -11 6z"/>
<path d="M1726 5791 c-15 -23 76 -54 143 -49 48 3 71 28 27 28 -15 0 -43 7
-63 15 -39 17 -99 20 -107 6z"/>
<path d="M5930 5700 c0 -5 7 -10 15 -10 8 0 15 5 15 10 0 6 -7 10 -15 10 -8 0
-15 -4 -15 -10z"/>
<path d="M4950 5630 c0 -5 5 -10 10 -10 6 0 10 5 10 10 0 6 -4 10 -10 10 -5 0
-10 -4 -10 -10z"/>
<path d="M4980 5581 c0 -19 41 -114 62 -143 14 -21 24 -26 31 -19 8 8 -1 33
-29 88 -35 69 -64 102 -64 74z"/>
<path d="M4895 5481 c-9 -30 29 -153 58 -188 43 -51 47 -65 29 -95 -15 -25
-15 -32 0 -80 9 -29 19 -65 22 -79 8 -37 44 -79 61 -72 22 8 19 24 -22 108
-29 61 -34 78 -23 85 7 4 18 6 24 3 17 -7 113 -125 127 -155 13 -30 37 -44 52
-29 10 10 -67 145 -94 164 -17 13 -71 97 -156 247 -65 114 -69 118 -78 91z"/>
<path d="M5104 5341 c42 -80 207 -177 392 -230 56 -16 198 -48 315 -71 118
-22 229 -46 247 -51 19 -6 73 -46 122 -89 93 -82 96 -83 225 -96 39 -4 113
-22 165 -41 95 -34 140 -37 140 -8 0 8 -12 17 -27 20 -27 5 -45 11 -127 42
-22 8 -85 21 -140 29 -56 8 -109 17 -118 20 -9 3 -40 34 -68 69 -46 57 -58 66
-128 93 -46 17 -142 40 -237 56 -210 35 -440 97 -542 146 -45 22 -111 62 -147
90 -75 57 -93 63 -72 21z"/>
<path d="M6995 5050 c-3 -5 7 -18 24 -27 16 -10 50 -30 76 -46 26 -15 45 -33
43 -40 -3 -6 -31 -20 -64 -30 -32 -10 -89 -28 -126 -39 -37 -11 -73 -28 -80
-36 -12 -13 -7 -14 39 -8 28 3 109 22 180 42 167 46 227 45 305 -8 72 -49 142
-83 213 -103 114 -33 261 -97 430 -187 214 -114 218 -117 212 -140 -3 -10 1
-25 9 -32 21 -21 18 -28 -27 -71 -22 -22 -61 -66 -85 -97 -28 -36 -57 -61 -79
-69 -36 -13 -47 -29 -20 -29 29 0 14 -30 -52 -104 -177 -195 -297 -349 -363
-463 -40 -69 -51 -81 -101 -105 -30 -15 -127 -48 -215 -72 -87 -24 -205 -61
-261 -80 -128 -46 -220 -54 -357 -32 -85 14 -120 15 -252 5 -188 -14 -267 -5
-375 45 -95 44 -209 76 -272 76 -83 0 -298 -82 -276 -105 4 -3 34 2 68 11 54
15 64 16 72 3 19 -31 -67 -54 -176 -47 l-50 3 -1 90 c-1 84 -4 97 -46 195 -25
58 -49 122 -52 142 -6 33 -3 41 40 90 59 66 166 228 200 303 28 61 24 79 -17
73 -17 -2 -34 -22 -65 -79 -23 -42 -83 -133 -133 -203 -53 -76 -93 -142 -97
-163 -9 -50 18 -152 72 -265 41 -84 46 -102 40 -138 -6 -36 -3 -44 22 -70 33
-33 94 -46 178 -37 57 6 78 -5 45 -22 -46 -25 -221 -2 -313 40 l-48 22 -99
-18 c-65 -12 -112 -15 -137 -10 -102 20 -126 5 -75 -45 l31 -31 87 8 c127 12
195 8 313 -16 125 -25 191 -26 251 -6 99 35 139 114 88 179 l-20 26 26 12 c46
21 224 -19 395 -88 39 -16 81 -19 310 -21 146 -2 324 -4 395 -6 128 -2 132 -1
255 40 69 23 190 60 269 83 228 64 278 98 362 242 52 89 130 187 204 257 55
52 75 57 75 20 0 -46 64 -122 116 -139 33 -11 33 -12 27 -62 -7 -58 8 -78 61
-78 l30 0 -32 -33 c-18 -18 -37 -49 -42 -68 -27 -93 4 -212 60 -231 10 -3 10
-9 1 -26 -9 -17 -7 -31 9 -74 11 -29 30 -95 41 -147 40 -181 158 -561 236
-761 25 -63 82 -194 125 -290 44 -96 93 -206 109 -243 36 -86 151 -269 232
-368 34 -42 79 -107 99 -145 21 -38 53 -94 72 -124 29 -45 38 -73 50 -155 8
-55 24 -125 35 -156 l19 -57 -86 -72 -85 -73 34 -16 c56 -27 47 -59 -56 -207
-13 -18 10 -59 48 -88 26 -19 41 -20 307 -21 l278 0 40 -42 c21 -24 46 -43 54
-43 9 0 36 -9 61 -20 25 -11 83 -25 129 -31 46 -5 148 -23 228 -39 143 -29
286 -43 552 -56 129 -6 137 -5 147 14 13 25 80 64 146 87 59 19 96 52 120 105
31 68 26 70 -147 64 l-153 -6 -45 31 c-25 17 -56 31 -70 31 -38 0 -128 26
-157 45 -19 13 -39 16 -77 12 -66 -6 -86 5 -161 87 -33 36 -66 66 -73 66 -8 0
-41 15 -75 34 -34 19 -79 39 -99 46 -21 6 -58 32 -85 61 -26 27 -52 49 -59 49
-16 0 -314 299 -339 341 -11 18 -36 43 -55 56 -48 31 -70 54 -70 72 0 19 -57
91 -71 91 -17 0 -9 -26 27 -98 21 -44 47 -80 67 -93 60 -41 60 -44 15 -126
-22 -41 -38 -77 -34 -80 3 -4 34 -1 69 5 61 12 63 11 104 -18 23 -17 46 -30
52 -30 6 0 11 -3 11 -6 0 -12 -168 -174 -181 -174 -8 0 -30 5 -50 10 -35 10
-36 12 -42 64 -6 59 -51 160 -69 154 -30 -10 -32 -37 -9 -110 12 -40 25 -85
28 -101 5 -27 4 -27 -23 -17 -73 28 -127 130 -138 260 -12 141 -56 268 -101
288 -13 6 -35 33 -49 60 -14 27 -54 87 -89 133 -135 178 -224 326 -258 429
-21 64 -20 90 1 48 7 -12 34 -48 60 -78 27 -32 54 -78 65 -110 11 -30 27 -64
36 -75 9 -11 27 -40 39 -65 13 -24 58 -88 101 -141 76 -94 121 -128 154 -115
13 5 12 12 -6 57 -19 50 -51 103 -74 124 -30 27 -153 385 -190 550 -8 39 -18
80 -20 93 -3 12 -11 22 -17 22 -6 0 -20 7 -30 17 -10 9 -28 21 -40 27 -34 17
-33 34 4 44 42 11 45 29 12 78 -15 21 -43 75 -61 119 -19 44 -43 87 -53 97
-11 9 -20 28 -20 42 0 15 -10 35 -25 48 -14 12 -25 29 -25 38 0 9 -7 25 -15
36 -8 10 -15 31 -15 47 0 15 -4 27 -10 27 -5 0 -10 5 -10 11 0 6 -11 20 -25
31 -20 16 -23 23 -14 34 6 7 9 37 8 66 -2 29 0 59 5 67 9 13 -9 34 -37 44 -18
6 3 57 28 69 33 15 32 30 -9 113 -50 103 -88 151 -133 165 -50 17 -63 28 -63
55 0 24 74 105 96 105 6 0 17 6 23 14 10 12 5 16 -24 26 -41 14 -47 40 -9 40
29 0 64 16 64 30 0 5 -71 8 -159 7 -146 -2 -185 3 -168 19 3 4 64 19 134 35
70 16 153 38 184 49 47 18 60 19 82 9 l27 -12 0 -122 c0 -143 16 -245 65 -410
40 -136 41 -151 19 -176 -15 -17 -11 -36 61 -266 93 -301 215 -672 290 -888
43 -123 55 -168 50 -195 -5 -30 -2 -37 16 -45 24 -10 123 -171 134 -216 8 -37
62 -89 91 -89 13 0 24 4 24 10 0 5 -25 47 -57 92 -31 46 -71 115 -89 153 -45
100 -124 346 -188 590 -30 116 -60 224 -66 240 -6 17 -22 82 -36 145 -28 132
-70 285 -155 555 -73 236 -109 391 -109 475 0 74 14 109 50 127 45 22 60 51
60 111 0 31 5 105 12 165 14 124 12 127 -59 127 -39 0 -42 3 -63 44 -21 44
-66 76 -105 76 -30 0 -184 111 -269 193 -45 43 -108 97 -141 119 -33 23 -69
49 -80 58 -43 37 -347 160 -494 200 -26 7 -62 28 -90 54 -64 60 -80 67 -181
76 -98 9 -158 32 -212 79 -36 31 -90 42 -103 21z m1440 -787 c94 -36 176 -91
220 -149 l26 -34 -31 -26 c-17 -15 -60 -70 -95 -124 -35 -54 -71 -100 -79
-103 -16 -6 -128 -21 -236 -32 -52 -5 -63 -4 -52 6 20 21 14 39 -14 39 -20 0
-25 4 -22 23 3 19 -2 23 -37 27 l-40 5 85 33 c103 40 155 70 194 111 29 30 29
31 7 31 -38 0 -143 -30 -195 -56 -54 -27 -76 -25 -76 6 0 13 11 24 34 34 42
18 51 32 29 45 -17 9 -16 12 10 38 16 18 27 40 27 57 0 20 13 41 45 73 52 52
53 52 200 -4z m301 -238 c3 -14 -1 -54 -10 -90 -9 -35 -16 -82 -16 -104 0 -81
-43 -47 -55 44 -7 54 12 124 42 157 22 24 31 23 39 -7z m-437 -550 c33 -38 38
-75 22 -160 -6 -38 -8 -39 -19 -18 -7 12 -12 32 -12 45 0 14 -16 41 -40 66
-22 22 -40 48 -40 56 0 56 44 62 89 11z m201 -245 c0 -5 -7 -10 -15 -10 -8 0
-15 5 -15 10 0 6 7 10 15 10 8 0 15 -4 15 -10z m-167 -95 c4 -43 5 -80 1 -84
-22 -22 -65 129 -43 155 22 27 34 8 42 -71z m162 35 c4 -6 -6 -7 -27 -3 -44 8
-48 13 -10 13 17 0 34 -4 37 -10z m37 -72 c-15 -15 -26 -4 -18 18 5 13 9 15
18 6 9 -9 9 -15 0 -24z m-97 -28 c3 -5 -1 -10 -10 -10 -9 0 -13 5 -10 10 3 6
8 10 10 10 2 0 7 -4 10 -10z m23 -77 c2 -8 -6 -13 -22 -13 -26 0 -40 12 -29
24 11 11 46 2 51 -11z m-72 -34 c16 -47 53 -199 69 -286 8 -40 19 -82 25 -93
6 -12 9 -29 5 -38 -6 -15 -8 -15 -21 2 -8 11 -14 28 -14 38 0 10 -12 46 -26
80 -28 66 -64 215 -72 292 -5 58 15 61 34 5z m114 -39 c0 -5 -7 -10 -16 -10
-8 0 -12 5 -9 10 3 6 10 10 16 10 5 0 9 -4 9 -10z m15 -440 c3 -5 -1 -10 -9
-10 -9 0 -16 5 -16 10 0 6 4 10 9 10 6 0 13 -4 16 -10z m210 -254 c50 -94 100
-189 112 -211 19 -37 132 -320 148 -373 6 -19 4 -23 -11 -20 -22 4 -77 84
-100 145 -9 27 -56 131 -104 233 -101 214 -156 349 -164 405 l-7 40 18 -24
c10 -13 59 -101 108 -195z m-165 117 c0 -13 -3 -13 -15 -3 -8 7 -15 19 -15 27
0 13 3 13 15 3 8 -7 15 -19 15 -27z m70 -183 c0 -24 -19 -7 -39 35 -32 67 -25
87 9 28 17 -29 30 -57 30 -63z m80 -175 c0 -8 -4 -15 -10 -15 -5 0 -10 7 -10
15 0 8 5 15 10 15 6 0 10 -7 10 -15z m1104 -1236 c14 -11 26 -26 26 -34 0 -7
-36 -24 -85 -40 -47 -15 -85 -32 -85 -37 0 -5 10 -12 23 -17 12 -5 40 -23 62
-41 22 -17 55 -38 73 -45 44 -19 40 -35 -9 -35 -45 0 -83 -16 -74 -31 4 -5 19
-9 35 -9 28 0 69 -38 70 -64 1 -6 41 -31 91 -55 152 -74 182 -113 40 -54 -54
22 -92 32 -107 29 -26 -7 -32 -24 -11 -30 6 -3 72 -26 144 -52 121 -43 135
-46 160 -34 l28 13 -33 7 c-37 9 -49 17 -38 27 4 4 21 1 39 -6 47 -19 103 -32
177 -40 64 -8 203 -46 270 -74 32 -14 37 -13 86 12 29 14 52 30 50 36 -1 5
-35 23 -74 41 -40 17 -75 34 -79 39 -16 17 72 -5 133 -34 59 -28 64 -32 58
-55 -6 -27 -3 -29 80 -40 46 -6 56 -14 36 -27 -14 -9 -49 -8 -146 7 -37 6 -42
4 -47 -16 -6 -22 -9 -23 -89 -17 -46 3 -110 15 -142 26 -72 25 -131 28 -122 6
3 -9 0 -15 -10 -15 -21 0 -97 40 -107 56 -5 9 -25 14 -53 14 -24 0 -71 9 -103
20 -32 11 -108 26 -167 34 -60 8 -129 22 -153 32 l-43 17 6 50 c4 28 12 59 17
70 28 51 -48 21 -98 -39 -42 -52 -67 -56 -91 -14 -19 33 -24 35 -54 19 -16 -9
-28 -7 -54 7 -30 17 -38 17 -96 4 -35 -8 -83 -14 -107 -15 -41 0 -45 3 -52 29
-4 15 -15 36 -23 45 -20 21 -10 35 39 55 56 23 68 41 50 76 -8 15 -28 33 -45
40 -16 7 -30 18 -30 24 0 41 73 49 108 12 12 -14 42 -32 67 -41 50 -20 115
-11 188 26 46 24 120 78 126 94 2 5 17 22 32 37 33 34 76 36 113 7z m131 -76
c14 -21 25 -41 25 -45 0 -13 -68 -48 -95 -48 -33 0 -65 25 -65 51 0 20 67 78
92 79 10 0 29 -17 43 -37z m150 -168 c65 -32 116 -68 184 -130 52 -47 101 -85
109 -85 8 0 25 9 39 20 26 20 103 28 103 11 0 -5 -14 -19 -31 -32 l-30 -21 33
-30 33 -29 -40 7 c-22 4 -62 8 -90 9 -27 1 -66 9 -85 18 -19 8 -73 25 -119 37
-69 19 -105 37 -203 102 -78 53 -118 86 -118 98 0 18 79 68 110 69 8 1 55 -19
105 -44z m-759 -200 c-36 -27 -145 -33 -153 -8 -3 8 15 13 59 16 35 2 74 4 88
5 24 1 24 1 6 -13z m1717 -92 c41 -11 -1 -23 -83 -23 -73 0 -91 -3 -99 -17 -8
-14 -12 -15 -25 -4 -20 17 -20 25 0 46 14 14 31 16 103 10 47 -4 94 -9 104
-12z m-1186 -69 c-3 -3 -12 -4 -19 -1 -8 3 -5 6 6 6 11 1 17 -2 13 -5z"/>
<path d="M9472 560 c-57 -10 -106 -21 -110 -25 -14 -14 26 -26 73 -21 l50 5
-35 -29 c-55 -45 -27 -47 56 -5 70 36 77 38 89 22 19 -26 53 -22 61 7 3 14 4
33 2 43 -5 25 -58 26 -186 3z"/>
<path d="M9982 468 c5 -16 215 -157 246 -165 72 -18 14 39 -125 125 -84 50
-129 65 -121 40z"/>
<path d="M5440 4860 c0 -26 17 -60 75 -150 25 -38 63 -106 86 -152 44 -92 46
-117 13 -200 -14 -37 -16 -50 -6 -60 17 -17 50 16 78 80 32 71 31 124 -5 189
-34 61 -221 313 -233 313 -4 0 -8 -9 -8 -20z"/>
<path d="M7235 4773 c-131 -11 -157 -24 -85 -43 58 -16 210 14 210 42 0 8 -41
8 -125 1z"/>
<path d="M5920 4756 c0 -27 51 -76 93 -88 59 -17 604 -18 632 -1 16 10 -12 12
-145 6 -228 -8 -348 10 -485 74 -57 26 -95 30 -95 9z"/>
<path d="M6100 4592 c1 -35 25 -52 76 -52 77 0 446 30 479 39 40 11 -72 19
-347 25 -190 4 -208 3 -208 -12z"/>
<path d="M6590 4524 c-52 -7 -105 -13 -117 -13 -13 -1 -23 -6 -23 -13 0 -8 34
-9 128 -4 141 8 208 18 225 35 15 15 -86 13 -213 -5z"/>
<path d="M6990 4485 c-41 -8 -154 -24 -250 -35 -243 -28 -318 -45 -297 -66 10
-11 255 10 484 41 218 30 225 31 221 53 -4 23 -61 25 -158 7z"/>
<path d="M7605 4172 c-155 -88 -185 -106 -185 -114 0 -25 61 2 175 77 145 96
144 95 124 95 -8 -1 -59 -26 -114 -58z"/>
<path d="M7788 4196 c-35 -18 -99 -52 -143 -75 -83 -44 -113 -66 -103 -77 13
-12 69 9 145 55 43 26 106 62 141 81 34 18 62 37 62 41 0 18 -40 8 -102 -25z"/>
<path d="M7783 4104 c-93 -53 -152 -98 -140 -110 4 -4 22 0 40 10 46 25 188
112 212 130 20 15 20 15 -5 16 -14 0 -62 -21 -107 -46z"/>
<path d="M7854 4027 c-57 -31 -89 -56 -81 -63 8 -8 86 37 111 65 23 26 21 26
-30 -2z"/>
<path d="M6443 3824 c-7 -20 12 -38 56 -53 69 -23 563 -7 613 20 46 25 10 28
-214 23 -191 -5 -250 -4 -326 10 -114 20 -121 20 -129 0z"/>
<path d="M4978 3804 c-58 -31 -20 -49 92 -42 74 4 101 17 82 40 -16 19 -140
21 -174 2z"/>
<path d="M6823 3730 c-27 -11 -30 -35 -7 -44 9 -3 63 -6 120 -6 57 0 104 -4
104 -9 0 -5 -19 -21 -43 -34 -58 -34 -76 -55 -56 -68 16 -10 178 -12 203 -3
32 12 3 24 -60 24 -35 0 -64 3 -64 8 0 4 19 17 43 30 54 28 75 59 54 79 -27
27 -242 44 -294 23z"/>
<path d="M4945 3706 c-22 -6 -40 -16 -40 -21 0 -6 38 -12 84 -15 71 -5 86 -9
98 -27 29 -44 78 10 53 57 -9 17 -21 20 -83 19 -40 0 -90 -6 -112 -13z"/>
<path d="M8417 3453 c-14 -13 27 -43 60 -43 38 0 46 23 14 40 -22 11 -64 13
-74 3z"/>
<path d="M9267 1153 c13 -36 84 -162 98 -173 9 -7 26 -9 40 -6 50 13 42 34
-46 116 -87 82 -103 93 -92 63z"/>
<path d="M260 805 c-8 -21 -16 -25 -50 -25 -31 0 -40 -4 -40 -17 0 -10 -9 -33
-20 -51 -11 -18 -20 -41 -20 -51 0 -25 32 -64 56 -67 10 -2 42 -6 71 -10 l52
-6 6 38 c7 46 11 61 30 132 18 69 13 82 -36 82 -33 0 -41 -4 -49 -25z m-30
-61 c0 -19 24 -18 40 1 17 20 31 6 24 -22 -7 -25 -32 -37 -49 -23 -8 6 -15 6
-23 -2 -14 -14 -42 -3 -42 18 0 21 30 55 41 48 5 -3 9 -12 9 -20z"/>
<path d="M66 604 c-12 -31 -6 -91 10 -105 26 -22 83 -14 112 15 33 32 26 39
-22 24 -34 -11 -40 -10 -52 7 -8 10 -14 31 -14 47 0 31 -24 39 -34 12z"/>
<path d="M226 489 c-48 -49 -49 -49 -97 -43 -54 7 -64 -4 -26 -31 19 -13 20
-17 7 -25 -8 -5 -23 -10 -32 -10 -15 0 -17 -7 -12 -47 9 -68 22 -75 124 -71
70 3 98 10 153 36 77 36 91 56 58 84 -34 26 -61 24 -61 -7 0 -14 -8 -29 -19
-35 -21 -11 -100 -14 -125 -4 -32 12 -15 24 34 24 44 0 52 3 60 24 5 13 22 33
39 46 17 12 31 30 31 41 0 24 -46 69 -69 68 -9 0 -38 -23 -65 -50z"/>
</g>
</svg>
