<?xml version="1.0" standalone="no"?>
<!DOCTYPE svg PUBLIC "-//W3C//DTD SVG 20010904//EN"
 "http://www.w3.org/TR/2001/REC-SVG-20010904/DTD/svg10.dtd">
<svg version="1.0" xmlns="http://www.w3.org/2000/svg"
 width="725.000000pt" height="1280.000000pt" viewBox="0 0 725.000000 1280.000000"
 preserveAspectRatio="xMidYMid meet">
<metadata>
Created by potrace 1.15, written by Peter Selinger 2001-2017
</metadata>
<g transform="translate(0.000000,1280.000000) scale(0.100000,-0.100000)"
fill="#000000" stroke="none">
<path d="M3685 12486 c-129 -24 -188 -52 -250 -117 -85 -89 -158 -256 -180
-414 -11 -80 -55 -248 -71 -272 -17 -26 -18 -97 -3 -142 9 -26 16 -31 44 -31
l32 0 0 -162 c0 -142 3 -173 23 -241 25 -85 34 -94 118 -117 39 -10 43 -14 38
-35 -5 -18 -1 -25 15 -30 20 -7 20 -9 -12 -28 -54 -33 -66 -64 -29 -74 11 -3
20 -9 20 -13 0 -11 -56 -18 -73 -9 -19 11 -134 -68 -179 -123 -21 -25 -42 -66
-49 -92 l-12 -47 -31 30 c-29 29 -34 30 -68 19 -34 -10 -40 -8 -100 29 -37 23
-87 46 -118 52 -66 13 -250 12 -267 -2 -21 -16 -15 -59 13 -88 l26 -27 -23
-12 c-13 -7 -33 -20 -44 -30 -38 -33 -148 -59 -340 -80 -298 -32 -770 -94
-940 -124 -44 -8 -155 -22 -247 -32 l-167 -17 -56 34 -57 34 39 5 c37 5 38 6
44 55 3 28 17 73 31 100 15 28 34 88 42 135 9 47 43 184 76 305 33 121 69 279
80 350 36 229 52 308 82 394 22 63 28 93 23 122 -7 38 -8 39 -40 33 -73 -13
-107 -9 -127 16 -19 23 -21 24 -33 6 -7 -10 -21 -61 -31 -114 -9 -54 -46 -198
-81 -322 -35 -124 -75 -270 -89 -325 -14 -55 -52 -197 -84 -315 -143 -518
-137 -492 -125 -534 12 -42 33 -59 70 -54 14 2 33 -6 50 -22 24 -23 34 -25
103 -23 43 1 147 14 232 28 100 17 226 29 355 35 217 10 306 18 610 55 344 42
388 47 462 46 74 0 128 -16 152 -44 29 -35 132 -11 146 35 12 35 22 3 29 -94
5 -65 16 -108 43 -175 34 -83 36 -94 35 -198 0 -61 -5 -128 -11 -150 -6 -22
-10 -131 -11 -243 0 -177 3 -211 20 -262 11 -34 20 -86 20 -121 0 -60 15 -133
32 -155 5 -6 4 -22 0 -35 -12 -33 25 -176 57 -219 14 -19 36 -43 48 -53 20
-16 23 -27 23 -97 l0 -78 30 -7 c18 -4 36 -2 44 4 17 14 26 4 26 -32 0 -48 24
-26 31 29 12 93 122 309 209 407 18 21 62 59 96 83 78 55 104 54 104 -6 0 -21
5 -51 10 -65 12 -31 4 -51 -14 -36 -14 11 -52 -24 -122 -114 -21 -27 -62 -77
-90 -110 -58 -68 -96 -136 -85 -153 8 -13 117 94 166 163 34 48 81 95 117 119
21 14 27 14 31 3 3 -8 1 -20 -3 -27 -5 -8 -2 -26 7 -43 18 -35 9 -47 -45 -62
-21 -6 -38 -18 -40 -28 -3 -14 5 -17 52 -17 l55 0 -1 -40 c-1 -51 -30 -90 -66
-90 -41 0 -60 -15 -46 -37 9 -14 24 -18 64 -18 l52 1 -5 -43 c-5 -51 -21 -73
-52 -73 -15 0 -25 -8 -28 -22 -8 -29 -4 -33 48 -48 49 -14 69 -30 36 -30 -17
0 -21 -6 -21 -35 l0 -35 -48 0 c-27 0 -52 -3 -55 -6 -12 -13 13 -41 52 -59 32
-14 39 -21 30 -31 -6 -8 -9 -22 -6 -33 8 -31 -11 -51 -47 -51 -41 0 -54 -24
-30 -51 16 -18 16 -19 -2 -19 -11 0 -25 -5 -31 -11 -15 -15 -20 8 -28 132 -6
88 -9 99 -33 122 -15 13 -47 34 -72 44 l-46 20 -80 -29 -80 -29 -43 -107 c-23
-59 -55 -156 -70 -217 -25 -104 -26 -115 -15 -190 10 -67 23 -102 79 -210 38
-71 76 -139 87 -151 18 -20 17 -22 -17 -92 -20 -41 -41 -72 -49 -72 -9 0 -33
18 -55 40 -22 22 -44 40 -49 40 -13 0 -66 -85 -83 -132 -11 -32 -10 -48 9
-125 41 -168 44 -261 40 -1233 -4 -901 -5 -928 -26 -1045 -12 -66 -33 -147
-47 -180 -27 -67 -55 -188 -55 -241 0 -47 26 -84 59 -84 15 0 31 -8 39 -20 11
-17 10 -20 -7 -20 -48 0 -66 -66 -36 -127 12 -24 15 -72 16 -214 1 -101 -2
-200 -5 -219 -7 -38 -25 -369 -56 -1025 -25 -515 -65 -889 -102 -959 -19 -34
-26 -138 -13 -171 8 -18 10 -46 6 -70 -5 -33 -10 -40 -32 -43 -14 -2 -31 4
-39 12 -7 9 -18 16 -24 16 -6 0 -39 -56 -74 -124 -61 -118 -69 -129 -230 -297
-111 -116 -175 -175 -190 -176 -24 -2 -121 -74 -136 -101 -6 -10 -11 -33 -13
-52 -2 -19 -11 -43 -20 -52 -9 -10 -13 -21 -9 -25 3 -4 32 18 64 49 52 52 180
130 206 127 6 -1 19 1 29 6 10 4 21 5 24 1 3 -3 -11 -13 -33 -22 -21 -8 -61
-26 -89 -39 -27 -12 -58 -25 -67 -28 -23 -8 -109 -127 -101 -140 3 -6 17 2 31
19 59 70 73 84 99 97 26 13 94 30 109 27 4 -1 11 4 15 12 5 7 19 13 31 13 14
0 29 11 41 30 11 17 62 100 114 185 99 161 120 190 135 190 16 0 0 -34 -112
-226 -68 -117 -124 -202 -148 -222 -20 -18 -44 -39 -52 -46 -8 -8 -31 -17 -50
-21 -49 -10 -164 -85 -151 -98 7 -7 29 -5 68 7 32 10 83 25 113 34 30 9 65 23
77 30 12 8 27 11 33 7 22 -13 58 24 75 77 34 105 143 282 224 363 27 28 71 70
96 94 25 24 48 56 51 70 5 25 8 26 68 24 43 -1 77 -8 106 -23 41 -21 44 -21
80 -5 28 13 39 25 44 47 9 44 -3 99 -33 154 -21 41 -31 50 -57 52 -18 2 -42
14 -55 29 -24 25 -24 25 -2 19 25 -8 34 3 49 59 8 32 7 54 -8 110 -14 55 -18
109 -18 250 1 344 35 726 131 1438 65 486 95 643 141 723 33 59 30 77 -15 95
-18 7 -42 21 -54 32 -12 10 -35 22 -52 26 -29 6 -29 6 -11 28 l18 23 46 -25
c44 -23 49 -24 81 -11 41 17 52 51 61 176 l7 86 -66 71 c-36 39 -70 80 -76 91
-13 25 -28 233 -36 512 -7 228 10 1189 24 1403 9 126 12 140 35 168 30 36 34
84 9 111 -19 22 -19 48 2 160 21 114 42 140 80 98 14 -15 21 -17 32 -9 7 6 13
18 13 25 0 21 14 17 30 -10 27 -44 135 -158 175 -186 88 -60 235 -81 308 -43
21 10 44 13 74 9 25 -3 53 -1 64 5 11 6 49 11 84 12 62 2 66 4 110 47 47 46
115 154 115 183 0 21 67 167 76 167 4 0 15 -7 25 -16 15 -13 24 -14 49 -6 l30
11 0 -58 c0 -51 -4 -63 -35 -102 -41 -52 -46 -105 -15 -157 11 -18 20 -46 20
-63 0 -30 -52 -444 -70 -549 -78 -482 -163 -913 -236 -1205 -30 -118 -54 -150
-152 -196 -44 -21 -66 -39 -73 -57 -16 -41 -12 -175 6 -218 11 -28 12 -39 4
-45 -9 -5 -8 -42 5 -145 16 -133 15 -149 -4 -379 -73 -851 -145 -1307 -232
-1465 -29 -51 -30 -59 -25 -134 3 -51 1 -88 -6 -101 -6 -11 -14 -42 -18 -70
-8 -57 13 -104 54 -122 21 -10 30 -7 62 15 l37 26 59 -64 c69 -74 160 -244
179 -334 10 -48 16 -59 43 -73 18 -9 46 -27 63 -39 17 -13 46 -29 65 -35 19
-7 42 -18 51 -27 10 -8 25 -12 34 -8 15 6 9 15 -31 56 -27 28 -54 50 -61 50
-24 0 -100 120 -164 260 -75 163 -88 203 -66 194 19 -7 44 -51 131 -221 51
-101 71 -133 86 -133 10 0 19 -4 19 -9 0 -5 14 -14 30 -21 50 -21 79 -49 105
-101 23 -45 45 -64 45 -39 0 26 -51 120 -70 130 -40 21 -114 81 -141 114 -31
38 -90 138 -118 200 -18 41 -18 45 -3 37 32 -17 61 -56 104 -141 59 -114 70
-130 90 -130 9 0 18 -3 20 -7 2 -5 20 -20 40 -36 20 -15 56 -54 79 -87 44 -62
69 -73 41 -17 -8 17 -18 34 -21 37 -45 41 -120 129 -104 121 28 -14 92 -76
120 -116 30 -42 38 -26 12 21 l-21 39 25 -27 c28 -30 42 -27 25 6 -18 35 -72
96 -84 96 -13 0 -114 102 -184 185 -23 28 -65 74 -94 104 -28 30 -50 61 -48
68 4 20 -67 163 -81 163 -7 0 -21 -6 -31 -13 -14 -10 -25 -11 -40 -4 -17 8
-21 17 -18 45 3 24 7 30 13 21 7 -11 12 -11 26 4 16 16 18 34 15 150 -2 131
13 294 43 447 8 41 28 165 45 275 17 110 47 283 65 385 19 102 46 257 60 345
28 173 71 333 98 363 9 10 17 23 17 29 0 6 15 30 34 54 20 27 37 63 41 89 4
25 7 155 5 290 -2 235 -1 251 29 410 16 91 46 262 66 380 20 118 60 328 90
465 29 138 79 370 110 517 50 239 112 451 152 523 12 22 1 94 -27 167 -19 52
-25 58 -56 64 -27 5 -43 1 -73 -19 l-39 -26 -4 31 c-4 26 3 40 44 85 60 66 65
80 87 216 18 108 18 108 -5 194 -33 123 -124 271 -233 377 l-70 69 -93 8 -93
7 -52 -34 c-57 -37 -106 -94 -99 -115 2 -8 7 -58 11 -111 5 -87 4 -98 -10 -98
-11 0 -15 6 -10 19 11 36 -4 53 -45 46 -40 -7 -53 2 -63 46 -6 22 0 31 32 57
21 17 41 41 44 53 6 21 4 21 -48 15 l-53 -6 -4 41 c-3 36 0 44 24 62 32 24 37
57 9 64 -13 3 -26 22 -35 51 -21 59 -21 59 13 65 17 4 30 14 34 26 6 26 0 31
-39 31 -29 0 -35 4 -40 28 -3 15 -10 37 -15 50 -14 36 -11 42 21 42 19 0 33 6
37 16 7 20 -13 34 -49 34 -31 0 -33 11 -21 83 5 34 8 38 29 33 28 -8 92 -50
160 -108 28 -24 79 -63 113 -87 33 -24 61 -49 61 -56 0 -6 11 -22 25 -35 22
-21 30 -22 63 -14 l37 9 1 82 c2 80 3 83 42 130 45 54 73 143 78 248 3 74 30
304 43 365 18 86 11 395 -12 490 -13 55 -13 55 19 100 45 64 89 271 79 372 -7
67 -6 71 11 62 40 -18 102 -10 131 18 52 48 149 51 528 13 262 -26 555 -45
701 -45 87 0 201 -8 295 -21 85 -11 194 -21 242 -22 87 -2 89 -2 110 28 12 16
27 45 33 65 l11 35 11 -27 c24 -59 92 -11 92 64 0 30 -9 52 -40 92 -21 30 -65
94 -96 143 -32 48 -101 149 -154 223 -53 74 -142 203 -198 285 -56 83 -154
222 -217 310 -63 88 -132 192 -154 230 -75 132 -91 155 -106 155 -8 0 -15 -8
-15 -18 0 -22 -49 -52 -84 -52 -45 0 -27 -59 47 -156 25 -32 91 -144 148 -249
56 -104 171 -299 256 -433 84 -133 165 -266 179 -296 16 -33 45 -70 79 -100
43 -37 55 -53 55 -76 0 -28 29 -57 44 -43 3 3 6 1 6 -5 0 -27 -15 -42 -47 -48
-41 -8 -317 11 -458 32 -157 23 -525 61 -815 84 -175 14 -288 28 -332 41 -36
10 -72 19 -78 19 -7 0 -25 11 -41 24 -15 13 -34 26 -41 28 -8 3 -3 16 15 40
33 43 33 49 3 77 -24 23 -26 23 -138 11 -125 -13 -150 -21 -233 -75 -43 -27
-64 -35 -84 -30 -22 5 -30 1 -40 -19 -7 -13 -24 -29 -38 -35 -34 -15 -51 0
-59 51 -4 21 -22 59 -41 83 -43 57 -160 138 -181 126 -26 -15 -59 45 -54 99 2
25 7 50 11 55 4 6 8 39 9 75 1 64 1 64 52 110 38 34 59 64 83 120 46 106 55
120 76 120 29 0 67 52 120 164 89 186 126 342 119 502 -4 90 -8 110 -40 176
-44 92 -83 137 -158 183 -119 72 -251 97 -385 71z m-2725 -1001 c-6 -77 -19
-185 -29 -240 -19 -104 -136 -494 -196 -650 -30 -79 -34 -86 -35 -54 0 20 18
110 39 200 22 90 42 184 46 209 4 25 27 113 51 197 23 83 56 216 73 295 17 78
36 170 43 203 13 60 13 60 16 20 2 -22 -1 -103 -8 -180z m4949 -72 c22 -38 64
-104 94 -148 144 -209 393 -594 367 -569 -39 39 -358 484 -392 549 -53 100
-118 235 -113 235 2 0 22 -30 44 -67z m-2017 -688 c25 -9 58 -29 73 -45 30
-32 25 -42 -7 -13 -20 18 -93 35 -145 34 -38 -1 -44 15 -10 29 31 12 38 12 89
-5z m-454 -17 c2 -12 -5 -16 -35 -16 -66 -1 -117 -14 -150 -40 -39 -29 -44
-16 -7 19 56 52 184 77 192 37z m515 -90 c18 -12 33 -22 35 -24 6 -4 -10 -54
-18 -54 -4 0 -23 11 -42 24 -24 16 -40 21 -49 15 -8 -5 -31 -6 -52 -3 -26 4
-45 1 -62 -10 -34 -22 -36 -20 -18 14 20 41 57 59 121 60 39 0 62 -6 85 -22z
m-517 -7 c33 -20 57 -69 25 -52 -27 15 -146 8 -167 -10 -11 -8 -31 -20 -45
-26 -25 -11 -27 -10 -31 18 -4 25 2 35 31 59 31 25 45 29 96 30 42 0 69 -6 91
-19z m1088 -6 c-7 -16 -24 -18 -73 -9 -45 9 -27 24 29 24 40 0 48 -3 44 -15z
m-1776 -4 c43 -7 74 -18 102 -39 l40 -29 -26 -11 c-36 -17 -41 -15 -47 17 -8
37 -54 59 -87 41 -19 -10 -26 -9 -43 9 -24 24 -24 24 61 12z m1624 -40 c-3
-22 -8 -28 -23 -24 -30 8 -26 17 27 52 0 1 -1 -12 -4 -28z m-489 -68 c-7 -2
-21 -2 -30 0 -10 3 -4 5 12 5 17 0 24 -2 18 -5z m227 -99 c0 -50 -2 -55 -17
-49 -10 4 -36 12 -58 18 -22 5 -42 11 -44 13 -12 10 78 69 112 73 4 1 7 -24 7
-55z m2400 16 c-8 -5 -19 -10 -25 -10 -5 0 -3 5 5 10 8 5 20 10 25 10 6 0 3
-5 -5 -10z m-3173 -16 c-3 -3 -12 -4 -19 -1 -8 3 -5 6 6 6 11 1 17 -2 13 -5z
m-122 -34 c3 -5 -1 -10 -9 -10 -9 0 -16 5 -16 10 0 6 4 10 9 10 6 0 13 -4 16
-10z m815 -41 c25 -5 52 -14 60 -19 13 -9 13 -11 0 -20 -8 -5 -42 -18 -76 -28
-47 -15 -72 -17 -115 -10 -30 5 -63 8 -74 8 -11 0 -31 2 -43 5 -21 5 -22 8
-10 22 7 9 36 27 63 40 52 24 91 24 195 2z m-673 -14 c21 -9 45 -23 55 -32 18
-16 17 -17 -14 -30 -17 -7 -64 -16 -103 -20 -70 -5 -72 -5 -78 18 -14 50 -8
67 21 72 56 8 84 7 119 -8z m748 -95 c3 -5 2 -10 -4 -10 -5 0 -13 5 -16 10 -3
6 -2 10 4 10 5 0 13 -4 16 -10z m-56 -53 c44 -16 67 -30 72 -45 9 -25 8 -26
-47 -41 -32 -9 -51 -8 -90 4 -27 8 -62 15 -77 15 -16 0 -36 4 -46 9 -10 6 -42
6 -74 2 -31 -4 -57 -5 -57 -2 0 6 226 80 245 80 6 0 39 -10 74 -22z m-702 -28
c31 -10 64 -19 75 -19 10 0 18 -4 18 -9 0 -4 -11 -6 -24 -4 -13 3 -27 0 -30
-6 -4 -6 -20 -11 -35 -11 -15 0 -54 -9 -86 -20 -32 -11 -59 -20 -61 -20 -8 0
10 106 19 111 13 9 57 1 124 -22z m781 -180 c20 -12 48 -77 38 -87 -3 -2 -13
1 -23 6 -55 29 -319 63 -377 48 -18 -4 -26 -14 -27 -29 -1 -18 -2 -19 -6 -4
-3 10 -2 29 1 43 6 21 12 24 54 25 26 0 70 4 97 8 78 12 217 7 243 -10z m-761
-2 c112 -2 123 -4 123 -21 0 -12 -5 -16 -14 -13 -8 3 -77 -3 -153 -14 -75 -10
-138 -19 -139 -19 -2 0 7 53 12 68 2 8 12 10 26 7 13 -3 78 -7 145 -8z m601
-103 c71 -11 47 -24 -45 -24 l-88 0 25 20 c14 11 34 18 45 16 11 -3 39 -8 63
-12z m-579 -8 c10 -12 2 -15 -52 -21 -99 -11 -124 -3 -52 17 77 21 90 21 104
4z m-549 -6 c0 -5 -5 -10 -11 -10 -5 0 -7 5 -4 10 3 6 8 10 11 10 2 0 4 -4 4
-10z m70 -83 c0 -5 -14 -27 -32 -49 -28 -36 -33 -38 -39 -22 -12 31 -10 47 12
83 19 32 21 33 40 16 10 -10 19 -22 19 -28z m1293 -17 c8 -40 59 -67 95 -50
20 9 28 8 41 -4 19 -19 10 -28 -49 -49 -84 -29 -103 -30 -176 -1 -38 14 -116
39 -174 54 -58 15 -123 35 -145 44 -39 15 -35 15 125 16 91 1 183 5 205 9 67
14 72 13 78 -19z m-703 0 c0 -5 -9 -10 -20 -10 -12 0 -33 -6 -48 -14 -15 -7
-63 -24 -107 -36 -44 -12 -123 -40 -175 -62 -102 -42 -110 -43 -219 -12 l-54
15 39 40 c44 45 51 46 104 19 l40 -20 40 25 c22 14 40 29 40 34 0 7 61 12 333
29 15 1 27 -2 27 -8z m890 0 c0 -5 -5 -10 -11 -10 -5 0 -7 5 -4 10 3 6 8 10
11 10 2 0 4 -4 4 -10z m49 -110 c0 -8 -9 2 -20 23 -13 24 -18 46 -13 60 6 19
9 15 20 -23 8 -25 14 -52 13 -60z m-1625 -35 c-14 -31 -19 -36 -22 -21 -2 11
2 37 9 59 11 34 14 37 22 21 5 -13 2 -33 -9 -59z m1206 -5 c18 -11 -172 -12
-210 -1 l-24 7 31 13 c18 7 37 19 43 26 9 11 23 9 78 -11 37 -14 73 -30 82
-34z m-581 15 c42 -13 3 -23 -110 -30 l-104 -6 80 35 c67 28 83 32 95 21 8 -7
26 -16 39 -20z m961 -5 c26 -51 25 -73 -5 -107 -24 -27 -26 -27 -39 -10 -8 10
-29 29 -47 43 l-32 23 26 10 c15 6 37 26 49 45 13 20 24 36 25 36 2 0 12 -18
23 -40z m-1472 -75 c18 -3 32 -8 32 -9 0 -1 -21 -24 -46 -50 l-46 -49 -28 29
-28 29 20 53 20 53 22 -24 c13 -14 37 -28 54 -32z m1318 -41 c32 -25 59 -51
59 -56 0 -6 -29 -19 -64 -28 l-63 -18 -72 33 c-39 18 -102 43 -141 56 l-70 24
105 7 c58 4 121 12 140 17 19 5 38 9 41 10 3 1 32 -20 65 -45z m-994 1 c104 0
126 -6 71 -19 -16 -4 -79 -30 -141 -58 l-113 -51 -70 13 c-38 7 -68 17 -67 21
2 5 32 31 68 58 61 47 67 50 105 43 22 -4 88 -7 147 -7z m1193 -103 c-5 -41
-9 -52 -16 -40 -14 24 -13 59 1 93 17 41 24 17 15 -53z m-458 16 c85 -40 72
-46 -89 -47 -115 -1 -156 11 -83 25 20 3 40 16 50 30 20 32 42 30 122 -8z
m-584 2 c3 -13 17 -22 36 -26 17 -4 33 -10 36 -14 7 -11 -187 -28 -232 -21
l-37 6 69 37 c80 43 120 48 128 18z m-583 -45 c11 -7 6 -57 -8 -80 -9 -14 -20
33 -20 85 -1 35 1 40 8 24 5 -12 14 -25 20 -29z m1574 -66 c5 -31 2 -41 -30
-78 l-37 -43 -24 49 c-14 26 -28 52 -33 57 -6 5 11 18 39 32 27 12 52 27 56
34 10 16 20 -2 29 -51z m-1445 -19 c11 0 26 -3 35 -6 14 -5 13 -10 -4 -34 -11
-16 -27 -45 -35 -64 -9 -20 -20 -36 -26 -36 -15 0 -69 62 -69 80 0 8 5 32 11
53 l10 37 29 -15 c16 -8 38 -15 49 -15z m1292 -78 c36 -64 33 -68 -50 -106
l-59 -26 -68 50 c-37 27 -71 50 -77 50 -12 0 -2 79 12 93 6 6 46 16 88 22 73
11 80 10 101 -9 12 -11 36 -44 53 -74z m-786 72 c-66 -49 -125 -82 -130 -74
-3 5 1 22 9 37 10 21 26 30 62 39 70 17 83 16 59 -2z m395 -4 c13 -9 13 -10 0
-10 -8 0 -22 5 -30 10 -13 9 -13 10 0 10 8 0 22 -5 30 -10z m-663 -10 c25 0
43 -42 43 -100 0 -32 -6 -43 -44 -74 -24 -20 -54 -36 -65 -36 -21 0 -129 35
-139 44 -6 7 76 148 97 164 10 8 29 11 51 8 19 -3 45 -6 57 -6z m664 -99 c-8
-14 -21 -21 -42 -21 -18 0 -28 4 -24 10 3 6 13 10 20 10 8 0 19 9 26 21 7 14
14 18 21 11 7 -7 6 -17 -1 -31z m-411 14 c0 -7 8 -18 17 -23 12 -7 5 -11 -30
-13 -26 -2 -47 -2 -47 0 0 8 43 51 52 51 4 0 8 -7 8 -15z m969 -122 c-6 -24
-15 -43 -19 -43 -4 0 -12 18 -19 40 -11 38 -10 43 16 77 l28 37 3 -34 c2 -19
-2 -53 -9 -77z m-1529 -50 c-7 -21 -15 -42 -18 -47 -9 -16 -30 56 -31 107 l-1
48 31 -35 c29 -34 30 -37 19 -73z m629 34 c0 -21 -1 -21 -9 -2 -12 28 -12 37
0 30 6 -3 10 -16 9 -28z m819 -46 l20 -58 -28 -17 c-16 -9 -32 -16 -37 -16
-13 0 -77 94 -66 97 5 2 25 14 44 28 18 13 37 24 41 25 3 0 15 -26 26 -59z
m-1295 -61 c-41 -70 -46 -73 -87 -56 -42 17 -43 27 -11 102 l13 33 50 -27 c50
-26 50 -27 35 -52z m1003 62 c6 -4 14 -19 18 -34 8 -33 -8 -37 -42 -9 -33 28
-12 67 24 43z m-808 -47 c16 -59 15 -65 -8 -95 l-19 -25 -20 45 c-11 25 -21
50 -21 56 0 13 38 64 49 64 4 0 12 -20 19 -45z m603 -12 c135 -122 220 -211
268 -279 l54 -78 -54 47 c-99 85 -174 147 -228 189 -51 40 -54 41 -67 23 -8
-10 -14 -15 -15 -9 -2 39 -4 144 -2 144 1 0 21 -17 44 -37z m369 -75 c0 -4
-11 -8 -24 -8 -24 0 -36 22 -35 65 0 17 5 14 29 -15 17 -19 30 -38 30 -42z
m-186 13 c10 -10 14 -21 9 -24 -4 -3 -16 6 -26 19 -21 28 -8 32 17 5z m356
-57 c0 -31 -6 -46 -29 -68 l-28 -27 -5 51 c-5 44 -2 54 21 79 31 34 41 25 41
-35z m-1438 -3 c32 -20 33 -21 30 -80 l-4 -61 -34 36 c-39 42 -47 63 -38 98 7
31 5 31 46 7z m1319 -89 c6 -30 9 -56 6 -58 -2 -3 -19 22 -36 55 -28 55 -30
61 -14 70 22 12 29 2 44 -67z m-1181 23 l29 -15 -16 -45 c-11 -33 -21 -47 -39
-51 -14 -4 -28 -4 -31 0 -6 6 17 126 24 126 2 0 17 -7 33 -15z m1100 -65 c6
-11 8 -20 6 -20 -3 0 -10 9 -16 20 -6 11 -8 20 -6 20 3 0 10 -9 16 -20z m81
-137 c10 -27 0 -42 -28 -43 -16 0 -17 42 -1 58 16 16 17 16 29 -15z m-1227 -5
c18 -25 21 -58 7 -58 -28 0 -41 14 -41 46 0 39 12 43 34 12z m1136 -989 c13
-24 30 -41 45 -45 37 -9 48 -35 26 -59 -29 -32 -42 -100 -24 -125 17 -24 14
-55 -19 -170 -36 -125 -107 -214 -229 -287 -71 -43 -106 -56 -111 -42 -2 5
-37 18 -78 30 -84 23 -93 28 -216 119 -186 138 -184 136 -211 225 -39 124 -40
159 -9 188 22 21 26 33 26 83 1 58 1 59 16 32 8 -16 18 -28 23 -28 4 0 18 -23
32 -51 13 -28 33 -55 44 -59 11 -4 47 -4 80 1 l60 9 32 -36 c32 -37 35 -54 7
-54 -8 0 -14 -7 -14 -15 0 -8 6 -15 14 -15 19 0 47 -46 40 -65 -4 -10 1 -22
14 -30 11 -8 23 -26 26 -39 3 -14 16 -31 28 -37 18 -10 24 -8 35 7 7 10 13 29
13 43 0 13 7 33 16 43 13 13 14 21 6 31 -14 16 -5 58 15 74 16 12 8 38 -8 28
-23 -15 -27 9 -7 49 20 43 23 44 77 51 96 11 109 20 128 88 15 51 22 62 50 73
18 8 33 19 33 25 0 19 20 -2 40 -42z m-290 1 c-8 -5 -17 -7 -19 -4 -3 3 1 9 9
14 8 5 17 7 19 4 3 -3 -1 -9 -9 -14z m-280 -31 c0 -5 -7 -9 -15 -9 -9 0 -12 6
-9 15 6 15 24 11 24 -6z m-151 -550 c30 -11 81 -43 113 -71 49 -42 58 -55 58
-83 0 -41 -11 -49 -51 -40 -47 11 -107 71 -145 147 -19 37 -33 68 -32 68 2 0
28 -9 57 -21z m684 -99 c-3 -11 -9 -20 -15 -20 -5 0 -4 9 2 20 6 11 12 20 14
20 2 0 2 -9 -1 -20z m-1724 -6027 c-59 -100 -151 -235 -155 -230 -14 13 120
237 154 256 25 15 26 14 1 -26z m-330 -276 c-20 -17 -99 -67 -99 -63 0 7 83
66 94 66 5 0 7 -2 5 -3z"/>
<path d="M1408 12210 c-15 -5 -47 -24 -70 -43 -56 -46 -262 -170 -311 -188
-55 -19 -61 -38 -30 -82 26 -37 53 -49 53 -23 0 14 45 11 65 -4 6 -4 24 -11
41 -14 30 -7 32 -6 38 31 3 21 8 46 9 55 6 32 39 57 83 64 38 5 47 3 79 -23
30 -25 95 -113 95 -128 0 -3 -6 -5 -14 -5 -7 0 -24 20 -37 45 -35 65 -51 59
-23 -9 7 -20 7 -20 -22 0 -16 11 -48 26 -72 34 -39 12 -44 12 -57 -6 -8 -10
-15 -24 -15 -30 0 -6 51 -30 113 -54 61 -24 117 -48 124 -53 6 -4 49 -11 95
-14 46 -2 97 -11 115 -18 28 -12 36 -11 72 7 55 27 55 49 -1 46 -44 -2 -158
20 -158 31 0 7 112 51 129 51 7 0 11 8 9 17 -2 10 -12 18 -22 18 -13 0 -22 10
-27 28 -4 15 -35 62 -68 104 -56 69 -60 78 -46 93 33 37 -1 71 -56 57 -12 -3
-31 0 -43 7 -14 9 -31 11 -48 6z m155 -169 c32 -37 65 -80 73 -96 15 -29 14
-31 -13 -52 -31 -25 -43 -29 -43 -12 0 7 -32 57 -71 111 -56 78 -68 102 -58
109 31 19 55 6 112 -60z m-123 -30 c38 -42 75 -98 84 -129 6 -16 2 -20 -19
-18 -17 1 -23 6 -20 14 3 8 -26 48 -65 91 -38 43 -70 81 -70 86 0 19 59 -10
90 -44z"/>
<path d="M1593 12183 c-21 -8 -15 -40 15 -75 40 -46 90 -121 102 -152 9 -25
40 -37 40 -16 0 11 -109 203 -132 232 -7 9 -19 14 -25 11z"/>
<path d="M5100 12010 c-14 -11 -31 -25 -38 -30 -7 -7 -10 -22 -6 -38 5 -25 4
-26 -10 -9 -32 40 -47 18 -82 -113 -41 -154 -41 -154 -8 -146 15 4 23 3 20 -3
-14 -23 7 -41 48 -42 22 0 59 -3 81 -7 l40 -7 -49 -29 c-49 -29 -98 -45 -146
-49 -14 -1 -26 -9 -28 -18 -5 -26 113 -35 147 -12 35 24 130 63 152 63 10 0
21 5 24 10 3 6 15 10 26 10 10 0 19 4 19 9 0 5 42 39 93 75 146 104 136 92
105 123 l-27 26 -68 -60 c-62 -54 -102 -83 -117 -83 -11 0 -5 35 9 54 17 22
20 40 6 32 -5 -4 -12 0 -14 6 -8 18 -27 -10 -27 -39 0 -12 -5 -25 -11 -29 -9
-5 -10 1 -5 20 16 69 18 80 11 74 -4 -4 -17 -35 -29 -69 -12 -35 -27 -64 -34
-67 -16 -5 -15 16 3 68 8 24 13 45 11 48 -4 4 -21 -30 -47 -95 -9 -24 -33 -31
-44 -13 -3 6 0 10 8 10 8 0 17 12 20 28 3 15 23 54 45 88 l40 61 62 6 c140 15
220 5 220 -26 0 -7 9 -20 20 -30 11 -9 20 -24 20 -32 0 -22 23 -18 52 8 14 13
29 22 34 20 13 -3 64 67 64 88 0 18 -25 30 -70 34 -77 8 -325 63 -399 89 -57
21 -91 20 -121 -4z m22 -105 c3 -3 -7 -44 -23 -91 -16 -47 -31 -101 -35 -120
-7 -37 -10 -39 -51 -23 -17 6 -23 13 -16 17 7 4 12 16 11 27 -1 11 17 59 40
108 36 77 56 99 74 82z m86 -7 c-8 -7 -35 -52 -59 -101 -49 -96 -64 -102 -26
-9 27 68 65 121 86 121 12 1 12 -1 -1 -11z m-203 -98 c-40 -99 -47 -94 -9 6
27 74 34 87 40 82 1 -2 -12 -42 -31 -88z m230 -130 c3 -5 1 -10 -4 -10 -6 0
-11 5 -11 10 0 6 2 10 4 10 3 0 8 -4 11 -10z"/>
</g>
</svg>
